<svg xmlns="http://www.w3.org/2000/svg" width="800" height="600"><defs/><g>
  <path d="M 520.9341363882997 253.3876759920715 L 482.6253400426284 291.696472337743 L 482.6253400426284 341.0936545301729" stroke="#00ff00" stroke-width="2.8" fill="none"/>
  <path d="M 275.30527164319744 188.95932336985047 L 238.08170629668246 226.18288871636543 L 184.5831585857062 226.18288871636543" stroke="#00ff00" stroke-width="2.8" fill="none"/><line x1="435.40681812141526" y1="282.0866441712277" x2="435.40681812141526" y2="353.2355397916079" stroke="#00ff00" stroke-width="2.8"/>
  <path d="M 155.60668362011967 220.8033336091416 L 187.11189535047487 252.3085453394968 L 187.11189535047487 291.5591468902083" stroke="#00ff00" stroke-width="2.8" fill="none"/>
  <path d="M 230.34505594386087 289.66614229538925 L 271.84642877515296 289.66614229538925 L 301.9578460844065 319.7775596046428" stroke="#00ff00" stroke-width="2.8" fill="none"/><line x1="123.09304893490854" y1="246.8734842981763" x2="123.09304893490854" y2="325.79535669602154" stroke="#00ff00" stroke-width="2.8"/>
  <path d="M 401.43518191904195 419.48612791485937 L 430.61079332778024 448.6617393235976 L 472.23985023248935 448.6617393235976" stroke="#00ff00" stroke-width="2.8" fill="none"/>
  <path d="M 386.8608609898988 393.07288435195863 L 439.3792495353024 393.07288435195863 L 474.1126786797319 427.8063134963882" stroke="#00ff00" stroke-width="2.8" fill="none"/>
  <path d="M 159.02683148389735 388.56050448682316 L 188.96464538935476 388.56050448682316 L 207.18337736126955 406.779236458738 L 207.18337736126955 440.808817913567" stroke="#00ff00" stroke-width="2.8" fill="none"/>
  <path d="M 436.5468911839082 374.9699599524749 L 474.0094396688332 374.9699599524749 L 507.1707899844477 341.80860963686035" stroke="#00ff00" stroke-width="2.8" fill="none"/>
  <path d="M 156.9015451119719 290.7988580582762 L 182.49628020119073 316.39359314749504 L 221.6014879155908 316.39359314749504" stroke="#00ff00" stroke-width="2.8" fill="none"/><line x1="267.4041153528653" y1="131.55990015612912" x2="327.34245515037696" y2="191.49823995364082" stroke="#00ff00" stroke-width="2.8"/>
  <path d="M 264.5649335485031 430.0839781339042 L 235.06320482923712 459.58570685317017 L 235.06320482923712 497.59039843629705" stroke="#00ff00" stroke-width="2.8" fill="none"/>
  <path d="M 296.18200820312717 425.15649599605985 L 317.6278205566742 446.6023083496068 L 317.6278205566742 477.81770790973803 L 300.29988767102697 495.1456407953852" stroke="#00ff00" stroke-width="2.8" fill="none"/><line x1="232.7280987113138" y1="304.30118753327497" x2="232.7280987113138" y2="400.4854216828411" stroke="#00ff00" stroke-width="2.8"/>
  <path d="M 282.04547135165706 218.70065125334673 L 307.8125653947104 244.46774529640007 L 307.8125653947104 283.10720433533777" stroke="#00ff00" stroke-width="2.8" fill="none"/><line x1="371.95562722790356" y1="190.18786729174752" x2="441.40885772211146" y2="259.6410977859554" stroke="#00ff00" stroke-width="2.8"/>
  <path d="M 367.3548445300017 367.2867563594897 L 340.2084446845669 394.43315620492444 L 340.2084446845669 444.3862326709432" stroke="#00ff00" stroke-width="2.8" fill="none"/>
  <path d="M 397.87002232789445 463.38536884311867 L 428.4726900104881 463.38536884311867 L 449.305394199338 484.2180730319686 L 482.2283876883569 484.2180730319686" stroke="#00ff00" stroke-width="2.8" fill="none"/>
  <path d="M 427.72847823273884 149.33829557173902 L 427.72847823273884 190.86559609868337 L 461.118005919566 224.25512378551053" stroke="#00ff00" stroke-width="2.8" fill="none"/><line x1="366.311890471923" y1="310.1947320362525" x2="417.4526756501569" y2="361.33551721448634" stroke="#00ff00" stroke-width="2.8"/>
  <path d="M 383.29137257652326 483.4594887511633 L 347.6513259760638 519.0995353516228 L 308.38900042709406 519.0995353516228" stroke="#00ff00" stroke-width="2.8" fill="none"/>
  <path d="M 133.121369312539 326.60497164636934 L 164.08802980694014 357.5716321407705 L 209.54635490132702 357.5716321407705" stroke="#00ff00" stroke-width="2.8" fill="none"/>
  <path d="M 281.2397803371313 279.2935836345742 L 307.2849828512737 305.3387861487165 L 348.67887623106867 305.3387861487165" stroke="#00ff00" stroke-width="2.8" fill="none"/>
  <path d="M 190.50861987650134 450.0045040535581 L 210.20037884036725 469.696263017424 L 210.20037884036725 506.34022760760894 L 190.65056927606275 525.8900371719134" stroke="#00ff00" stroke-width="2.8" fill="none"/>
  <path d="M 346.3135712672521 341.3548345101567 L 385.6088939721496 341.3548345101567 L 412.35320864598657 368.0991491839937" stroke="#00ff00" stroke-width="2.8" fill="none"/>
  <path d="M 252.38505149922065 351.1717683760873 L 284.12290754518193 382.90962442204864 L 284.12290754518193 421.9220847417483" stroke="#00ff00" stroke-width="2.8" fill="none"/>
  <path d="M 167.13926341136698 422.06751090674663 L 149.51575225875374 439.69102205935985 L 149.51575225875374 465.7476958012347 L 171.65814145783278 487.8900850003138" stroke="#00ff00" stroke-width="2.8" fill="none"/><line x1="472.39195848655834" y1="251.7035980527022" x2="472.39195848655834" y2="331.2872865770365" stroke="#00ff00" stroke-width="2.8"/><line x1="323.60442327003756" y1="128.11784208851378" x2="375.6404588490829" y2="180.15387766755916" stroke="#00ff00" stroke-width="2.8"/><line x1="384.7978425479183" y1="166.81718586844408" x2="438.2042208861994" y2="220.2235642067252" stroke="#00ff00" stroke-width="2.8"/>
  <path d="M 247.6911831659012 515.805043126185 L 269.98371579515975 538.0975757554435 L 302.0501118466566 538.0975757554435 L 324.8896093758615 560.9370732846484" stroke="#00ff00" stroke-width="2.8" fill="none"/>
  <path d="M 386.6994140179217 219.5496119234883 L 386.6994140179217 252.76902365357213 L 409.35772357426487 275.42733320991533 L 409.35772357426487 301.1558987090041" stroke="#00ff00" stroke-width="2.8" fill="none"/>
  <path d="M 306.8777556483668 195.6186909695215 L 334.5306109483157 223.27154626947043 L 334.5306109483157 266.39544779404537" stroke="#00ff00" stroke-width="2.8" fill="none"/><line x1="517.5191167237925" y1="335.82274908051454" x2="517.5191167237925" y2="419.2052635213598" stroke="#00ff00" stroke-width="2.8"/>
  <path d="M 301.75379717806953 530.1649147304271 L 323.29748185854777 551.7085994109053 L 354.9827055693098 551.7085994109053 L 371.3499004757915 535.3414045044236" stroke="#00ff00" stroke-width="2.8" fill="none"/><line x1="326.85138523306875" y1="319.3067181518178" x2="326.85138523306875" y2="401.8676179807648" stroke="#00ff00" stroke-width="2.8"/>
  <path d="M 522.7293280500933 266.25092904813386 L 522.7293280500933 289.4295317660728 L 498.9714557195007 313.1874040966655 L 498.9714557195007 335.7598319445747" stroke="#00ff00" stroke-width="2.8" fill="none"/><line x1="209.2424099477043" y1="146.0387828533294" x2="143.39793775458088" y2="211.8832550464528" stroke="#00ff00" stroke-width="2.8"/>
  <path d="M 104.60280063066232 377.6840222258873 L 130.4697244577587 377.6840222258873 L 150.092137171369 397.3064349394976 L 150.092137171369 420.49965009231397" stroke="#00ff00" stroke-width="2.8" fill="none"/>
  <path d="M 465.5144006598102 507.2408513146435 L 434.2349351776024 538.5203167968514 L 386.9272680513497 538.5203167968514" stroke="#00ff00" stroke-width="2.8" fill="none"/><line x1="224.39586748961133" y1="438.23228468590213" x2="224.39586748961133" y2="510.76417181623935" stroke="#00ff00" stroke-width="2.8"/><line x1="114.23410760068559" y1="244.54199041187513" x2="114.23410760068559" y2="329.3424956628124" stroke="#00ff00" stroke-width="2.8"/>
  <path d="M 225.23605804266467 533.5148422193067 L 251.26571788588822 559.5445020625302 L 297.112474424406 559.5445020625302" stroke="#00ff00" stroke-width="2.8" fill="none"/>
  <path d="M 199.977828924474 245.4108697161226 L 228.43533442012222 273.8683752117708 L 269.5208540700624 273.8683752117708" stroke="#00ff00" stroke-width="2.8" fill="none"/><line x1="455.8559317472454" y1="264.1134309676226" x2="455.8559317472454" y2="352.0232126016647" stroke="#00ff00" stroke-width="2.8"/>
  <path d="M 105.14348660351465 412.41937615591075 L 122.56440057617965 429.8402901285757 L 122.56440057617965 457.2063832021977 L 140.25484725656221 474.89682988258016" stroke="#00ff00" stroke-width="2.8" fill="none"/>
  <path d="M 256.9140251109787 154.2351005095435 L 236.60259031291227 174.54653530760996 L 203.58206315957545 174.54653530760996 L 182.71658736140517 195.41201110578024" stroke="#00ff00" stroke-width="2.8" fill="none"/><line x1="323.61338277142266" y1="421.97886426239216" x2="323.61338277142266" y2="502.9677992420558" stroke="#00ff00" stroke-width="2.8"/>
  <path d="M 462.28389435358724 184.74419133736868 L 462.28389435358724 212.98920626362928 L 484.23871302286466 234.94402493290664 L 484.23871302286466 259.34487184608525" stroke="#00ff00" stroke-width="2.8" fill="none"/>
  <path d="M 345.21848127593796 129.37832447186105 L 386.8539559312786 129.37832447186105 L 417.3394748175466 159.86384335812906" stroke="#00ff00" stroke-width="2.8" fill="none"/>
  <path d="M 392.9919269892947 280.0146069798033 L 375.6557243505321 297.3508096185659 L 345.24275823145496 297.3508096185659 L 328.2636823267385 280.3717337138495" stroke="#00ff00" stroke-width="2.8" fill="none"/>
  <path d="M 361.5213520304774 185.24337821392137 L 341.26224850850605 205.50248173589276 L 341.26224850850605 233.66089263534724 L 357.75098226151357 250.14962638835473" stroke="#00ff00" stroke-width="2.8" fill="none"/>
  <path d="M 384.314572815307 415.1698711783797 L 360.1201358631641 439.36430813052266 L 360.1201358631641 483.7844344674189" stroke="#00ff00" stroke-width="2.8" fill="none"/><line x1="535.7083050239163" y1="279.430129880877" x2="535.7083050239163" y2="353.9978010220172" stroke="#00ff00" stroke-width="2.8"/><line x1="241.67292559351804" y1="336.9938928554836" x2="241.67292559351804" y2="438.61672432587625" stroke="#00ff00" stroke-width="2.8"/><line x1="252.42199490962616" y1="327.15895944830305" x2="300.2467195410678" y2="374.9836840797447" stroke="#00ff00" stroke-width="2.8"/>
  <path d="M 161.93692121961368 366.71245617934744 L 197.48730628831285 366.71245617934744 L 222.1206694474583 391.34581933849284" stroke="#00ff00" stroke-width="2.8" fill="none"/>
  <path d="M 185.7527507533586 418.18129102579246 L 163.9576979434259 439.97634383572506 L 163.9576979434259 464.1238788527817 L 179.79404100254658 479.9602219119023" stroke="#00ff00" stroke-width="2.8" fill="none"/><line x1="419.1036263809789" y1="257.315346648648" x2="419.1036263809789" y2="341.32999580811025" stroke="#00ff00" stroke-width="2.8"/>
  <path d="M 229.37528046183002 237.6384144653691 L 262.76434989656923 237.6384144653691 L 294.88392764144277 269.7579922102426" stroke="#00ff00" stroke-width="2.8" fill="none"/>
  <path d="M 201.1169523551464 194.5570284368279 L 251.0162231917348 194.5570284368279 L 277.31449736093566 168.25875426762704" stroke="#00ff00" stroke-width="2.8" fill="none"/><line x1="508.1850042645978" y1="369.2485117677084" x2="508.1850042645978" y2="442.3536940123466" stroke="#00ff00" stroke-width="2.8"/>
  <path d="M 277.1122165302495 451.328457187897 L 254.89424552231816 473.54642819582836 L 254.89424552231816 503.1483117579859 L 273.30839292580526 521.5624591614729" stroke="#00ff00" stroke-width="2.8" fill="none"/>
  <path d="M 289.9234667268805 179.3566661238766 L 289.9234667268805 212.62974142850695 L 323.3391923163756 246.04546701800203" stroke="#00ff00" stroke-width="2.8" fill="none"/><line x1="105.65460112091766" y1="276.6520418186498" x2="105.65460112091766" y2="363.7734708079948" stroke="#00ff00" stroke-width="2.8"/><line x1="443.4246425263601" y1="279.6263900179844" x2="443.4246425263601" y2="349.6013272161436" stroke="#00ff00" stroke-width="2.8"/>
  <path d="M 368.80120189392306 513.3952812069049 L 396.6574209265494 513.3952812069049 L 415.86896835984595 494.18373377360837 L 439.212035146461 494.18373377360837" stroke="#00ff00" stroke-width="2.8" fill="none"/><line x1="257.57340697005867" y1="305.73820301997637" x2="303.5826083552189" y2="351.74740440513665" stroke="#00ff00" stroke-width="2.8"/>
  <path d="M 127.27369324611725 219.9736384093241 L 146.1968678831054 238.89681304631225 L 146.1968678831054 267.17662764413086 L 166.74811116449962 287.72787092552505" stroke="#00ff00" stroke-width="2.8" fill="none"/><line x1="260.0742937038773" y1="321.88666353822185" x2="311.1670159099482" y2="372.9793857442927" stroke="#00ff00" stroke-width="2.8"/>
  <path d="M 499.7845288129855 426.30584246209816 L 499.7845288129855 451.4101906008947 L 482.8299901290095 468.36472928487075 L 462.89455066628426 468.36472928487075" stroke="#00ff00" stroke-width="2.8" fill="none"/><line x1="288.35366888328" y1="437.2877600861565" x2="288.35366888328" y2="508.8776944910977" stroke="#00ff00" stroke-width="2.8"/>
  <path d="M 88.20081928220667 349.2348450362148 L 88.20081928220667 378.00660898861463 L 105.90039342933997 395.70618313574795 L 131.0283523588505 395.70618313574795" stroke="#00ff00" stroke-width="2.8" fill="none"/><line x1="133.29795678460331" y1="292.44901860947266" x2="182.19171670902196" y2="341.3427785338913" stroke="#00ff00" stroke-width="2.8"/><line x1="350.9756739135602" y1="418.44928343830776" x2="350.9756739135602" y2="493.1322921430717" stroke="#00ff00" stroke-width="2.8"/>
  <path d="M 365.77603576185 212.894281356829 L 365.77603576185 245.51892527675224 L 387.64706922309654 267.3899587379988" stroke="#00ff00" stroke-width="2.8" fill="none"/>
  <path d="M 499.2223734651294 206.78738823770655 L 514.7706003919507 222.33561516452778 L 514.7706003919507 244.6483090604121 L 496.86763493376606 262.5512745185967" stroke="#00ff00" stroke-width="2.8" fill="none"/><line x1="215.24397316801688" y1="435.78620905064946" x2="215.24397316801688" y2="513.0536874945908" stroke="#00ff00" stroke-width="2.8"/><line x1="408.07993787392303" y1="211.20772704957676" x2="448.0045678663646" y2="251.13235704201836" stroke="#00ff00" stroke-width="2.8"/>
  <path d="M 340.199772092459 349.678779200596 L 368.36494309037283 349.678779200596 L 392.1241828667095 373.43801897693265" stroke="#00ff00" stroke-width="2.8" fill="none"/><line x1="167.33286906072925" y1="205.9855898384009" x2="236.51071987226408" y2="205.9855898384009" stroke="#00ff00" stroke-width="2.8"/><line x1="295.1435133031213" y1="136.3820643471796" x2="331.27406285086283" y2="172.51261389492106" stroke="#00ff00" stroke-width="2.8"/><line x1="332.65892016557245" y1="455.6778197108468" x2="332.65892016557245" y2="506.0523558295487" stroke="#00ff00" stroke-width="2.8"/><line x1="133.07738898183513" y1="280.0970115722337" x2="167.29930005366285" y2="314.31892264406144" stroke="#00ff00" stroke-width="2.8"/>
  <path d="M 333.3447320197395 538.2514305355703 L 354.7099978392867 538.2514305355703 L 368.55994322422777 524.4014851506292 L 386.302120770335 524.4014851506292" stroke="#00ff00" stroke-width="2.8" fill="none"/>
  <path d="M 261.77474137431307 164.09565577202125 L 241.88667346928668 183.98372367704766 L 211.56469806183662 183.98372367704766" stroke="#00ff00" stroke-width="2.8" fill="none"/>
  <path d="M 233.25391476673278 529.0602894365254 L 255.26503842668558 551.0714130964782 L 291.07674073353775 551.0714130964782" stroke="#00ff00" stroke-width="2.8" fill="none"/>
  <path d="M 542.4030888112245 387.0125555368321 L 542.4030888112245 403.0878526666127 L 529.265172958609 416.22576851922815 L 529.265172958609 435.14340941371825" stroke="#00ff00" stroke-width="2.8" fill="none"/>
  <path d="M 169.9372762597833 379.9798758503085 L 199.11488520787614 379.9798758503085 L 217.9115238622714 398.7765145047037" stroke="#00ff00" stroke-width="2.8" fill="none"/>
  <path d="M 353.6565187803449 143.14005233044153 L 379.6985490180068 143.14005233044153 L 401.1381714075226 164.5796747199573" stroke="#00ff00" stroke-width="2.8" fill="none"/>
  <path d="M 221.19955804677758 298.7948114428477 L 208.97789241471247 311.01647707491276 L 189.3644522785461 311.01647707491276 L 176.38623943752742 298.0382642338941" stroke="#00ff00" stroke-width="2.8" fill="none"/>
  <path d="M 411.0472246604424 413.65348625976696 L 424.6254234924523 427.2316850917769 L 443.3452024266733 427.2316850917769 L 454.8347534854827 438.72123615058626" stroke="#00ff00" stroke-width="2.8" fill="none"/>
  <path d="M 188.96772575350937 470.8230246707172 L 200.821970239091 482.6772691562988 L 200.821970239091 499.5814200624357 L 186.83042849562392 513.5729618059028" stroke="#00ff00" stroke-width="2.8" fill="none"/>
  <path d="M 275.2245129601124 403.79307444340157 L 275.2245129601124 435.7627977460704 L 254.92704435616764 456.0602663500151" stroke="#00ff00" stroke-width="2.8" fill="none"/>
  <path d="M 227.81068658020317 247.47498080819142 L 254.85151646055982 247.47498080819142 L 271.205231852738 263.8286962003695" stroke="#00ff00" stroke-width="2.8" fill="none"/><line x1="456.9681149808341" y1="389.33091457991213" x2="489.3648078852941" y2="421.72760748437213" stroke="#00ff00" stroke-width="2.8"/>
  <path d="M 402.8238606231122 520.858795725133 L 429.3979149861106 520.858795725133 L 450.1167173429016 500.13999336834195" stroke="#00ff00" stroke-width="2.8" fill="none"/>
  <path d="M 505.47285358183717 460.8775318223115 L 493.5181046323853 472.83228077176335 L 493.5181046323853 493.27746845692707 L 483.43028849380084 503.3652845955115" stroke="#00ff00" stroke-width="2.8" fill="none"/>
  <path d="M 340.58007841127943 563.2573689087841 L 363.46966934719575 563.2573689087841 L 377.180861038933 549.5461772170468" stroke="#00ff00" stroke-width="2.8" fill="none"/><line x1="526.9775559513623" y1="352.75186461278946" x2="526.9775559513623" y2="392.66934745708494" stroke="#00ff00" stroke-width="2.8"/>
  <path d="M 243.15342165580373 142.6695637258866 L 243.15342165580373 154.17178982059733 L 232.0126521141482 165.3125593622528 L 214.20878355684442 165.3125593622528" stroke="#00ff00" stroke-width="2.8" fill="none"/>
  <path d="M 273.530539665537 484.35516513960147 L 273.530539665537 508.67495170139244 L 287.38790477916996 522.5323168150253" stroke="#00ff00" stroke-width="2.8" fill="none"/><line x1="251.92034938437595" y1="376.70668118469223" x2="251.92034938437595" y2="413.73408142178494" stroke="#00ff00" stroke-width="2.8"/>
  <path d="M 157.03240612268462 238.53802867264818 L 157.03240612268462 265.47695818338707 L 171.1669429837874 279.61149504448986" stroke="#00ff00" stroke-width="2.8" fill="none"/><line x1="272.2386502309103" y1="306.50950441808897" x2="298.2206996069672" y2="332.4915537941459" stroke="#00ff00" stroke-width="2.8"/>
  <path d="M 346.44662367721304 169.86978442764033 L 346.44662367721304 193.04426139395633 L 333.28572908568924 206.20515598548013" stroke="#00ff00" stroke-width="2.8" fill="none"/><line x1="396.2159527218245" y1="384.7017100896153" x2="436.24518321575573" y2="384.7017100896153" stroke="#00ff00" stroke-width="2.8"/><line x1="498.8975579650036" y1="370.2405323074229" x2="498.8975579650036" y2="409.2546640541081" stroke="#00ff00" stroke-width="2.8"/>
  <path d="M 407.4039907757466 445.50868641188987 L 398.7286760358895 454.18400115174694 L 384.83591505337597 454.18400115174694 L 375.87285735657633 463.1470588485466" stroke="#00ff00" stroke-width="2.8" fill="none"/><line x1="120.49997999864645" y1="342.2873970185452" x2="146.69397676074345" y2="368.4813937806422" stroke="#00ff00" stroke-width="2.8"/>
  <path d="M 396.4981691122653 302.94532226156514 L 410.27024244892067 316.7173955982205 L 410.27024244892067 335.6623061662751" stroke="#00ff00" stroke-width="2.8" fill="none"/>
  <path d="M 289.3725515643417 376.04425122499794 L 295.9564732669403 382.62817292759655 L 295.9564732669403 399.3281267397668 L 305.4971545829084 408.86880805573486" stroke="#00ff00" stroke-width="2.8" fill="none"/><line x1="133.81620561349737" y1="314.8660329123212" x2="159.7293292929905" y2="340.77915659181434" stroke="#00ff00" stroke-width="2.8"/><line x1="301.03282117859663" y1="130.61207557514714" x2="328.3404420034545" y2="157.919696400005" stroke="#00ff00" stroke-width="2.8"/>
  <path d="M 148.95076192664476 490.8863049080693 L 148.95076192664476 499.92385727844294 L 157.4212215977589 508.39431694955704 L 165.93194467501775 508.39431694955704" stroke="#00ff00" stroke-width="2.8" fill="none"/><line x1="236.16233206788823" y1="516.5315892929931" x2="258.97889163353625" y2="539.3481488586411" stroke="#00ff00" stroke-width="2.8"/>
  <path d="M 123.8765706730069 407.8474018981067 L 123.8765706730069 422.800915355585 L 136.32096863193908 435.24531331451715" stroke="#00ff00" stroke-width="2.8" fill="none"/><line x1="194.99158321923795" y1="214.38002394142535" x2="229.77188452557616" y2="214.38002394142535" stroke="#00ff00" stroke-width="2.8"/>
  <path d="M 344.57544680236055 251.35692599575106 L 344.57544680236055 259.8757859930962 L 352.2559872358208 267.55632642655644 L 352.2559872358208 276.60292697127693" stroke="#00ff00" stroke-width="2.8" fill="none"/>
  <path d="M 300.2769726641475 447.1055630743033 L 300.2769726641475 454.8915255059002 L 307.7644744609018 462.37902730265455 L 307.7644744609018 473.69331857708585" stroke="#00ff00" stroke-width="2.8" fill="none"/>
  <path d="M 184.34434693192964 331.2341157281711 L 194.84430672910813 341.73407552534957 L 213.19793407027393 341.73407552534957" stroke="#00ff00" stroke-width="2.8" fill="none"/>
  <path d="M 421.94602144279764 478.93984505739337 L 415.4450046422413 485.4408618579497 L 403.92156232365477 485.4408618579497 L 396.81800925162116 478.3373087859161" stroke="#00ff00" stroke-width="2.8" fill="none"/><line x1="313.3369276099382" y1="130.90886013024476" x2="333.70609856871863" y2="151.27803108902526" stroke="#00ff00" stroke-width="2.8"/>
  <path d="M 462.1959067468716 458.1303703322074 L 478.35820902083043 458.1303703322074 L 489.06795932488853 447.4206200281493" stroke="#00ff00" stroke-width="2.8" fill="none"/>
  <path d="M 92.75189469144908 301.5766837700783 L 99.16279434730995 307.9875834259392 L 99.16279434730995 320.89394570215825 L 91.80340475821302 328.2533352912552" stroke="#00ff00" stroke-width="2.8" fill="none"/><line x1="443.42428299601295" y1="165.1571126900716" x2="443.42428299601295" y2="191.92612707279224" stroke="#00ff00" stroke-width="2.8"/>
  <path d="M 221.52686914142052 418.29982033256715 L 232.80001634623872 429.5729675373853 L 232.80001634623872 440.8096229515263" stroke="#00ff00" stroke-width="2.8" fill="none"/>
  <path d="M 363.045084612536 392.97752018914287 L 369.7893930277264 392.97752018914287 L 378.42050650456207 384.34640671230727 L 378.42050650456207 374.4249219121638" stroke="#00ff00" stroke-width="2.8" fill="none"/>
  <path d="M 284.2688294326627 235.7513690004753 L 291.22200874273057 242.7045483105432 L 291.22200874273057 253.1308353416557 L 297.5793388492453 259.4881654481704" stroke="#00ff00" stroke-width="2.8" fill="none"/><line x1="317.60031942472443" y1="323.3818227979684" x2="317.60031942472443" y2="356.6510164200625" stroke="#00ff00" stroke-width="2.8"/><line x1="464.12637997377243" y1="261.3563854537199" x2="464.12637997377243" y2="291.038429724007" stroke="#00ff00" stroke-width="2.8"/>
  <path d="M 251.98089445764322 227.78125844777165 L 264.36737922451783 227.78125844777165 L 273.419335412025 236.83321463527886" stroke="#00ff00" stroke-width="2.8" fill="none"/>
  <path d="M 167.43055535163833 498.86085877785837 L 182.3690029551686 498.86085877785837 L 190.26965136234693 490.96021037068016" stroke="#00ff00" stroke-width="2.8" fill="none"/><line x1="481.15303917796257" y1="214.78851814775842" x2="499.83516411684053" y2="233.47064308663653" stroke="#00ff00" stroke-width="2.8"/><line x1="266.2255393771212" y1="380.5469781291484" x2="266.2255393771212" y2="409.2003245490429" stroke="#00ff00" stroke-width="2.8"/>
  <path d="M 180.8368052135539 402.96914640893453 L 176.2008410232661 407.6051105992223 L 166.45184815864164 407.6051105992223 L 161.55605780556363 412.5009009523003" stroke="#00ff00" stroke-width="2.8" fill="none"/>
  <path d="M 169.63289822921953 250.41942198758625 L 169.63289822921953 260.02324695261956 L 176.04913994792298 266.439488671323" stroke="#00ff00" stroke-width="2.8" fill="none"/>
  <path d="M 372.6254284975524 442.73053661643615 L 379.5573777202277 442.73053661643615 L 387.1655189891056 435.1223953475583 L 395.5422749289501 435.1223953475583" stroke="#00ff00" stroke-width="2.8" fill="none"/><line x1="544.57496891083" y1="313.1736354131284" x2="544.57496891083" y2="338.99696519401994" stroke="#00ff00" stroke-width="2.8"/>
  <path d="M 206.56642225321656 276.9925735252084 L 199.7781474209279 283.78084835749706 L 199.7781474209279 298.03331807839135" stroke="#00ff00" stroke-width="2.8" fill="none"/><line x1="387.35458580875775" y1="357.0354004498249" x2="402.520208809257" y2="372.20102345032416" stroke="#00ff00" stroke-width="2.8"/><line x1="373.3377066348691" y1="271.7312248940712" x2="360.08137680673104" y2="284.9875547222093" stroke="#00ff00" stroke-width="2.8"/>
  <path d="M 307.10739948115196 388.2684563188705 L 315.5291187713599 396.69017560907844 L 315.5291187713599 408.5371652693295" stroke="#00ff00" stroke-width="2.8" fill="none"/>
  <path d="M 455.2630673064582 171.97412335847318 L 466.65311775472946 171.97412335847318 L 474.45977361230626 179.78077921604995" stroke="#00ff00" stroke-width="2.8" fill="none"/>
  <path d="M 226.08786597744393 255.60276560266396 L 234.7424452524823 255.60276560266396 L 242.03513278237057 262.89545313255223" stroke="#00ff00" stroke-width="2.8" fill="none"/><line x1="436.9697386449597" y1="406.6951352442499" x2="448.592494808941" y2="418.3178914082312" stroke="#00ff00" stroke-width="2.8"/><line x1="488.9884170189249" y1="373.84571505409787" x2="474.72119937673955" y2="388.1129326962833" stroke="#00ff00" stroke-width="2.8"/><line x1="379.8491994996066" y1="311.0359276485822" x2="391.74657356050113" y2="322.9333017094767" stroke="#00ff00" stroke-width="2.8"/><line x1="345.68814939973754" y1="330.8221553773715" x2="365.82312214796065" y2="330.8221553773715" stroke="#00ff00" stroke-width="2.8"/>
  <path d="M 360.8698692856391 203.80892390553745 L 356.9151053580418 207.76368783313478 L 356.9151053580418 215.49526023107302 L 352.4022040128612 220.0081615762536" stroke="#00ff00" stroke-width="2.8" fill="none"/><line x1="375.2405553624548" y1="401.6580250785979" x2="397.076183710596" y2="401.6580250785979" stroke="#00ff00" stroke-width="2.8"/><line x1="390.4782447720898" y1="183.83079072217544" x2="403.92470618705556" y2="197.2772521371413" stroke="#00ff00" stroke-width="2.8"/>
  <path d="M 524.4353048365956 307.37976028299454 L 524.4353048365956 311.6592954927268 L 518.3068145629302 317.7877857663921 L 511.55445691306795 317.7877857663921" stroke="#00ff00" stroke-width="2.8" fill="none"/><line x1="224.4458222377118" y1="328.3885769410606" x2="224.4458222377118" y2="342.81746001039426" stroke="#00ff00" stroke-width="2.8"/><line x1="449.3009252128382" y1="233.67212178921343" x2="460.331311818394" y2="244.7025083947693" stroke="#00ff00" stroke-width="2.8"/><line x1="302.22646194796016" y1="208.23961872537444" x2="311.715676314001" y2="217.72883309141523" stroke="#00ff00" stroke-width="2.8"/><line x1="258.6085062952781" y1="345.9377764101425" x2="267.8399472579176" y2="355.16921737278193" stroke="#00ff00" stroke-width="2.8"/><line x1="469.44168572699067" y1="439.21743525289173" x2="482.63437651546656" y2="439.21743525289173" stroke="#00ff00" stroke-width="2.8"/>
  <path d="M 202.1355980611663 531.2303789167986 L 210.65026310111134 531.2303789167986 L 216.38210844936538 525.4985335685446" stroke="#00ff00" stroke-width="2.8" fill="none"/>
  <path d="M 135.67762145143342 450.3405220699266 L 135.67762145143342 455.9265283703797 L 139.56794503979563 459.8168519587419" stroke="#00ff00" stroke-width="2.8" fill="none"/><line x1="188.17668209535998" y1="427.22228711402505" x2="178.63262748777933" y2="436.7663417216056" stroke="#00ff00" stroke-width="2.8"/>
  <path d="M 474.8196855931953 350.89146939062255 L 474.8196855931953 353.81730935960184 L 470.1311224984234 358.5058724543738 L 467.35836424895433 358.5058724543738" stroke="#00ff00" stroke-width="2.8" fill="none"/>
  <path d="M 341.42708175651757 362.20367846352684 L 339.2065303062291 364.4242299138152 L 339.2065303062291 371.02997020014016 L 341.41221897284106 373.235658866752" stroke="#00ff00" stroke-width="2.8" fill="none"/><line x1="96.44193876803175" y1="347.2023862073703" x2="96.44193876803175" y2="357.568463355783" stroke="#00ff00" stroke-width="2.8"/>
  <path d="M 510.6443363204881 287.9311971203711 L 508.32517026422516 290.25036317663404 L 501.35084887187355 290.25036317663404 L 498.5604712249821 293.04074082352554" stroke="#00ff00" stroke-width="2.8" fill="none"/>
  <path d="M 241.64356549690007 299.60609938838115 L 246.35884296507282 304.3213768565539 L 246.35884296507282 312.056589673451" stroke="#00ff00" stroke-width="2.8" fill="none"/>
  <path d="M 233.67380721170068 138.27454818486848 L 231.091307058175 140.85704833839415 L 231.091307058175 147.33480495479935 L 232.69372734902845 148.9372252456528" stroke="#00ff00" stroke-width="2.8" fill="none"/>
  <path d="M 115.86172581997145 355.20274942338455 L 115.86172581997145 359.52376008401586 L 119.92802319055708 363.5900574546015 L 123.82123418406837 363.5900574546015" stroke="#00ff00" stroke-width="2.8" fill="none"/>
  <path d="M 139.4823114508079 405.8207865441838 L 137.20100038837745 408.1020976066142 L 137.20100038837745 413.7932489730008 L 138.83311914690015 415.42536773152347" stroke="#00ff00" stroke-width="2.8" fill="none"/>
  <path d="M 410.8211661688711 247.59423831955914 L 410.8211661688711 249.59102241180392 L 407.3532638587261 253.05892472194893 L 407.3532638587261 255.76816333127476" stroke="#00ff00" stroke-width="2.8" fill="none"/>
  <path d="M 485.05480725270706 398.09733354812823 L 485.05480725270706 399.6833443723022 L 488.94252220781067 403.5710593274058 L 488.94252220781067 406.0005478412244" stroke="#00ff00" stroke-width="2.8" fill="none"/>
  <path d="M 180.32088282474348 451.270523128949 L 180.32088282474348 454.5120906536584 L 176.38336286060905 458.4496106177928 L 176.38336286060905 460.26737253225787" stroke="#00ff00" stroke-width="2.8" fill="none"/>
  <path d="M 476.65640902584886 192.84838567385472 L 476.65640902584886 196.07018597285582 L 480.0108208969782 199.4245978439852 L 480.0108208969782 201.37690947224172" stroke="#00ff00" stroke-width="2.8" fill="none"/><line x1="364.26212570038564" y1="151.75308023555363" x2="372.96163368996577" y2="151.75308023555363" stroke="#00ff00" stroke-width="2.8"/>
  <path d="M 398.57982773367644 239.3533948976585 L 395.5045323373875 242.42869029394745 L 395.5045323373875 246.50949232145106" stroke="#00ff00" stroke-width="2.8" fill="none"/><line x1="274.7078134194518" y1="467.76806899131196" x2="270.69926138907834" y2="471.7766210216853" stroke="#00ff00" stroke-width="2.8"/>
  <path d="M 389.1402970529484 498.7584983996491 L 389.1402970529484 500.3161055507303 L 386.1370410273267 503.31936157635204 L 384.33319770475185 503.31936157635204" stroke="#00ff00" stroke-width="2.8" fill="none"/>
  <path d="M 198.56835609961428 262.4966996258718 L 199.8571204267204 263.7854639529779 L 199.8571204267204 268.4082461284397 L 198.51363234576613 269.751734209394" stroke="#00ff00" stroke-width="2.8" fill="none"/><line x1="167.56102123554965" y1="175.5911853474667" x2="161.43426726526002" y2="181.71793931775633" stroke="#00ff00" stroke-width="2.8"/>
  <path d="M 424.36589467394754 410.49720100281394 L 424.36589467394754 413.32830748355894 L 426.51575802309435 415.4781708327058" stroke="#00ff00" stroke-width="2.8" fill="none"/><line x1="427.33948603945635" y1="291.6455814553701" x2="427.33948603945635" y2="297.66625896664266" stroke="#00ff00" stroke-width="2.8"/><line x1="132.10883273912336" y1="241.33118671303865" x2="132.10883273912336" y2="245.47326637135762" stroke="#00ff00" stroke-width="2.8"/>
  <path d="M 210.9764390657075 238.79212921088404 L 210.9764390657075 242.3126736410459 L 213.40120596418663 244.73744053952504" stroke="#00ff00" stroke-width="2.8" fill="none"/><line x1="518.4958788348537" y1="442.29796972202786" x2="518.4958788348537" y2="448.3866993235591" stroke="#00ff00" stroke-width="2.8"/>
  <path d="M 215.57179804825023 369.1533102504963 L 215.49243957034898 369.23266872839747 L 212.29934240518142 369.23266872839747 L 211.7840949785951 368.71742130181116" stroke="#00ff00" stroke-width="2.8" fill="none"/>
  <circle cx="522.815040426256" cy="251.5067719541153" r="2.8" fill="none" stroke="#00ff00" stroke-width="2.8"/>
  <circle cx="482.6253400426284" cy="343.7536545301729" r="2.8" fill="none" stroke="#00ff00" stroke-width="2.8"/>
  <circle cx="277.1861756811536" cy="187.07841933189425" r="2.8" fill="none" stroke="#00ff00" stroke-width="2.8"/>
  <circle cx="181.9231585857062" cy="226.18288871636543" r="2.8" fill="none" stroke="#00ff00" stroke-width="2.8"/>
  <circle cx="435.40681812141526" cy="279.4266441712277" r="2.8" fill="none" stroke="#00ff00" stroke-width="2.8"/>
  <circle cx="435.40681812141526" cy="355.8955397916079" r="2.8" fill="none" stroke="#00ff00" stroke-width="2.8"/>
  <circle cx="153.72577958216345" cy="218.92242957118538" r="2.8" fill="none" stroke="#00ff00" stroke-width="2.8"/>
  <circle cx="187.11189535047487" cy="294.2191468902083" r="2.8" fill="none" stroke="#00ff00" stroke-width="2.8"/>
  <circle cx="227.68505594386087" cy="289.66614229538925" r="2.8" fill="none" stroke="#00ff00" stroke-width="2.8"/>
  <circle cx="303.83875012236274" cy="321.65846364259903" r="2.8" fill="none" stroke="#00ff00" stroke-width="2.8"/>
  <circle cx="123.09304893490854" cy="244.21348429817627" r="2.8" fill="none" stroke="#00ff00" stroke-width="2.8"/>
  <circle cx="123.09304893490854" cy="328.4553566960215" r="2.8" fill="none" stroke="#00ff00" stroke-width="2.8"/>
  <circle cx="399.55427788108574" cy="417.60522387690315" r="2.8" fill="none" stroke="#00ff00" stroke-width="2.8"/>
  <circle cx="474.8998502324893" cy="448.6617393235976" r="2.8" fill="none" stroke="#00ff00" stroke-width="2.8"/>
  <circle cx="384.20086098989884" cy="393.07288435195863" r="2.8" fill="none" stroke="#00ff00" stroke-width="2.8"/>
  <circle cx="475.9935827176882" cy="429.6872175343444" r="2.8" fill="none" stroke="#00ff00" stroke-width="2.8"/>
  <circle cx="156.36683148389733" cy="388.56050448682316" r="2.8" fill="none" stroke="#00ff00" stroke-width="2.8"/>
  <circle cx="207.18337736126955" cy="443.46881791356697" r="2.8" fill="none" stroke="#00ff00" stroke-width="2.8"/>
  <circle cx="433.88689118390823" cy="374.9699599524749" r="2.8" fill="none" stroke="#00ff00" stroke-width="2.8"/>
  <circle cx="509.0516940224039" cy="339.92770559890414" r="2.8" fill="none" stroke="#00ff00" stroke-width="2.8"/>
  <circle cx="155.02064107401569" cy="288.91795402032005" r="2.8" fill="none" stroke="#00ff00" stroke-width="2.8"/>
  <circle cx="224.2614879155908" cy="316.39359314749504" r="2.8" fill="none" stroke="#00ff00" stroke-width="2.8"/>
  <circle cx="265.5232113149091" cy="129.6789961181729" r="2.8" fill="none" stroke="#00ff00" stroke-width="2.8"/>
  <circle cx="329.2233591883332" cy="193.379143991597" r="2.8" fill="none" stroke="#00ff00" stroke-width="2.8"/>
  <circle cx="266.44583758645933" cy="428.20307409594795" r="2.8" fill="none" stroke="#00ff00" stroke-width="2.8"/>
  <circle cx="235.06320482923712" cy="500.250398436297" r="2.8" fill="none" stroke="#00ff00" stroke-width="2.8"/>
  <circle cx="294.30110416517095" cy="423.27559195810363" r="2.8" fill="none" stroke="#00ff00" stroke-width="2.8"/>
  <circle cx="298.41898363307075" cy="497.02654483334146" r="2.8" fill="none" stroke="#00ff00" stroke-width="2.8"/>
  <circle cx="232.7280987113138" cy="301.64118753327494" r="2.8" fill="none" stroke="#00ff00" stroke-width="2.8"/>
  <circle cx="232.7280987113138" cy="403.14542168284106" r="2.8" fill="none" stroke="#00ff00" stroke-width="2.8"/>
  <circle cx="280.16456731370084" cy="216.81974721539052" r="2.8" fill="none" stroke="#00ff00" stroke-width="2.8"/>
  <circle cx="307.8125653947104" cy="285.7672043353378" r="2.8" fill="none" stroke="#00ff00" stroke-width="2.8"/>
  <circle cx="370.07472318994735" cy="188.3069632537913" r="2.8" fill="none" stroke="#00ff00" stroke-width="2.8"/>
  <circle cx="443.28976176006773" cy="261.52200182391164" r="2.8" fill="none" stroke="#00ff00" stroke-width="2.8"/>
  <circle cx="369.23574856795796" cy="365.4058523215334" r="2.8" fill="none" stroke="#00ff00" stroke-width="2.8"/>
  <circle cx="340.2084446845669" cy="447.04623267094314" r="2.8" fill="none" stroke="#00ff00" stroke-width="2.8"/>
  <circle cx="395.2100223278945" cy="463.38536884311867" r="2.8" fill="none" stroke="#00ff00" stroke-width="2.8"/>
  <circle cx="484.8883876883569" cy="484.2180730319686" r="2.8" fill="none" stroke="#00ff00" stroke-width="2.8"/>
  <circle cx="427.72847823273884" cy="146.67829557173903" r="2.8" fill="none" stroke="#00ff00" stroke-width="2.8"/>
  <circle cx="462.99890995752224" cy="226.13602782346672" r="2.8" fill="none" stroke="#00ff00" stroke-width="2.8"/>
  <circle cx="364.4309864339668" cy="308.3138279982963" r="2.8" fill="none" stroke="#00ff00" stroke-width="2.8"/>
  <circle cx="419.3335796881131" cy="363.2164212524426" r="2.8" fill="none" stroke="#00ff00" stroke-width="2.8"/>
  <circle cx="385.1722766144795" cy="481.578584713207" r="2.8" fill="none" stroke="#00ff00" stroke-width="2.8"/>
  <circle cx="305.7290004270941" cy="519.0995353516228" r="2.8" fill="none" stroke="#00ff00" stroke-width="2.8"/>
  <circle cx="131.2404652745828" cy="324.7240676084131" r="2.8" fill="none" stroke="#00ff00" stroke-width="2.8"/>
  <circle cx="212.20635490132705" cy="357.5716321407705" r="2.8" fill="none" stroke="#00ff00" stroke-width="2.8"/>
  <circle cx="279.3588762991751" cy="277.412679596618" r="2.8" fill="none" stroke="#00ff00" stroke-width="2.8"/>
  <circle cx="351.3388762310687" cy="305.3387861487165" r="2.8" fill="none" stroke="#00ff00" stroke-width="2.8"/>
  <circle cx="188.62771583854513" cy="448.1236000156018" r="2.8" fill="none" stroke="#00ff00" stroke-width="2.8"/>
  <circle cx="188.76966523810654" cy="527.7709412098696" r="2.8" fill="none" stroke="#00ff00" stroke-width="2.8"/>
  <circle cx="343.6535712672521" cy="341.3548345101567" r="2.8" fill="none" stroke="#00ff00" stroke-width="2.8"/>
  <circle cx="414.23411268394284" cy="369.98005322194996" r="2.8" fill="none" stroke="#00ff00" stroke-width="2.8"/>
  <circle cx="250.50414746126444" cy="349.2908643381311" r="2.8" fill="none" stroke="#00ff00" stroke-width="2.8"/>
  <circle cx="284.12290754518193" cy="424.58208474174825" r="2.8" fill="none" stroke="#00ff00" stroke-width="2.8"/>
  <circle cx="169.0201674493232" cy="420.1866068687904" r="2.8" fill="none" stroke="#00ff00" stroke-width="2.8"/>
  <circle cx="173.539045495789" cy="489.77098903827" r="2.8" fill="none" stroke="#00ff00" stroke-width="2.8"/>
  <circle cx="472.39195848655834" cy="249.0435980527022" r="2.8" fill="none" stroke="#00ff00" stroke-width="2.8"/>
  <circle cx="472.39195848655834" cy="333.94728657703655" r="2.8" fill="none" stroke="#00ff00" stroke-width="2.8"/>
  <circle cx="321.7235192320814" cy="126.23693805055755" r="2.8" fill="none" stroke="#00ff00" stroke-width="2.8"/>
  <circle cx="377.5213628870392" cy="182.03478170551537" r="2.8" fill="none" stroke="#00ff00" stroke-width="2.8"/>
  <circle cx="382.9169385099621" cy="164.93628183048787" r="2.8" fill="none" stroke="#00ff00" stroke-width="2.8"/>
  <circle cx="440.08512492415565" cy="222.1044682446814" r="2.8" fill="none" stroke="#00ff00" stroke-width="2.8"/>
  <circle cx="245.81027912794502" cy="513.9241390882288" r="2.8" fill="none" stroke="#00ff00" stroke-width="2.8"/>
  <circle cx="326.7705134138177" cy="562.8179773226046" r="2.8" fill="none" stroke="#00ff00" stroke-width="2.8"/>
  <circle cx="386.6994140179217" cy="216.8896119234883" r="2.8" fill="none" stroke="#00ff00" stroke-width="2.8"/>
  <circle cx="409.35772357426487" cy="303.8158987090041" r="2.8" fill="none" stroke="#00ff00" stroke-width="2.8"/>
  <circle cx="304.9968516104106" cy="193.7377869315653" r="2.8" fill="none" stroke="#00ff00" stroke-width="2.8"/>
  <circle cx="334.5306109483157" cy="269.0554477940454" r="2.8" fill="none" stroke="#00ff00" stroke-width="2.8"/>
  <circle cx="517.5191167237925" cy="333.1627490805145" r="2.8" fill="none" stroke="#00ff00" stroke-width="2.8"/>
  <circle cx="517.5191167237925" cy="421.8652635213598" r="2.8" fill="none" stroke="#00ff00" stroke-width="2.8"/>
  <circle cx="299.8728931401133" cy="528.2840106924708" r="2.8" fill="none" stroke="#00ff00" stroke-width="2.8"/>
  <circle cx="373.2308045137477" cy="533.4605004664674" r="2.8" fill="none" stroke="#00ff00" stroke-width="2.8"/>
  <circle cx="326.85138523306875" cy="316.64671815181777" r="2.8" fill="none" stroke="#00ff00" stroke-width="2.8"/>
  <circle cx="326.85138523306875" cy="404.5276179807648" r="2.8" fill="none" stroke="#00ff00" stroke-width="2.8"/>
  <circle cx="522.7293280500933" cy="263.5909290481339" r="2.8" fill="none" stroke="#00ff00" stroke-width="2.8"/>
  <circle cx="498.9714557195007" cy="338.41983194457475" r="2.8" fill="none" stroke="#00ff00" stroke-width="2.8"/>
  <circle cx="211.1233139856605" cy="144.15787881537318" r="2.8" fill="none" stroke="#00ff00" stroke-width="2.8"/>
  <circle cx="141.51703371662467" cy="213.76415908440902" r="2.8" fill="none" stroke="#00ff00" stroke-width="2.8"/>
  <circle cx="101.94280063066232" cy="377.6840222258873" r="2.8" fill="none" stroke="#00ff00" stroke-width="2.8"/>
  <circle cx="150.092137171369" cy="423.15965009231394" r="2.8" fill="none" stroke="#00ff00" stroke-width="2.8"/>
  <circle cx="467.3953046977664" cy="505.3599472766873" r="2.8" fill="none" stroke="#00ff00" stroke-width="2.8"/>
  <circle cx="384.26726805134973" cy="538.5203167968514" r="2.8" fill="none" stroke="#00ff00" stroke-width="2.8"/>
  <circle cx="224.39586748961133" cy="435.57228468590216" r="2.8" fill="none" stroke="#00ff00" stroke-width="2.8"/>
  <circle cx="224.39586748961133" cy="513.4241718162393" r="2.8" fill="none" stroke="#00ff00" stroke-width="2.8"/>
  <circle cx="114.23410760068559" cy="241.88199041187514" r="2.8" fill="none" stroke="#00ff00" stroke-width="2.8"/>
  <circle cx="114.23410760068559" cy="332.0024956628124" r="2.8" fill="none" stroke="#00ff00" stroke-width="2.8"/>
  <circle cx="223.35515400470848" cy="531.6339381813505" r="2.8" fill="none" stroke="#00ff00" stroke-width="2.8"/>
  <circle cx="299.77247442440597" cy="559.5445020625302" r="2.8" fill="none" stroke="#00ff00" stroke-width="2.8"/>
  <circle cx="198.09692488651783" cy="243.52996567816638" r="2.8" fill="none" stroke="#00ff00" stroke-width="2.8"/>
  <circle cx="272.1808540700624" cy="273.8683752117708" r="2.8" fill="none" stroke="#00ff00" stroke-width="2.8"/>
  <circle cx="455.8559317472454" cy="261.4534309676226" r="2.8" fill="none" stroke="#00ff00" stroke-width="2.8"/>
  <circle cx="455.8559317472454" cy="354.6832126016647" r="2.8" fill="none" stroke="#00ff00" stroke-width="2.8"/>
  <circle cx="103.26258256555843" cy="410.5384721179545" r="2.8" fill="none" stroke="#00ff00" stroke-width="2.8"/>
  <circle cx="142.13575129451843" cy="476.7777339205364" r="2.8" fill="none" stroke="#00ff00" stroke-width="2.8"/>
  <circle cx="258.7949291489349" cy="152.3541964715873" r="2.8" fill="none" stroke="#00ff00" stroke-width="2.8"/>
  <circle cx="180.83568332344896" cy="197.29291514373642" r="2.8" fill="none" stroke="#00ff00" stroke-width="2.8"/>
  <circle cx="323.61338277142266" cy="419.3188642623922" r="2.8" fill="none" stroke="#00ff00" stroke-width="2.8"/>
  <circle cx="323.61338277142266" cy="505.62779924205574" r="2.8" fill="none" stroke="#00ff00" stroke-width="2.8"/>
  <circle cx="462.28389435358724" cy="182.08419133736865" r="2.8" fill="none" stroke="#00ff00" stroke-width="2.8"/>
  <circle cx="484.23871302286466" cy="262.0048718460852" r="2.8" fill="none" stroke="#00ff00" stroke-width="2.8"/>
  <circle cx="342.55848127593794" cy="129.37832447186105" r="2.8" fill="none" stroke="#00ff00" stroke-width="2.8"/>
  <circle cx="419.2203788555029" cy="161.74474739608527" r="2.8" fill="none" stroke="#00ff00" stroke-width="2.8"/>
  <circle cx="394.872831027251" cy="278.1337029418471" r="2.8" fill="none" stroke="#00ff00" stroke-width="2.8"/>
  <circle cx="326.38277828878233" cy="278.4908296758933" r="2.8" fill="none" stroke="#00ff00" stroke-width="2.8"/>
  <circle cx="363.40225606843364" cy="183.36247417596516" r="2.8" fill="none" stroke="#00ff00" stroke-width="2.8"/>
  <circle cx="359.6318862994698" cy="252.03053042631095" r="2.8" fill="none" stroke="#00ff00" stroke-width="2.8"/>
  <circle cx="386.1954768532632" cy="413.2889671404235" r="2.8" fill="none" stroke="#00ff00" stroke-width="2.8"/>
  <circle cx="360.1201358631641" cy="486.4444344674189" r="2.8" fill="none" stroke="#00ff00" stroke-width="2.8"/>
  <circle cx="535.7083050239163" cy="276.770129880877" r="2.8" fill="none" stroke="#00ff00" stroke-width="2.8"/>
  <circle cx="535.7083050239163" cy="356.6578010220172" r="2.8" fill="none" stroke="#00ff00" stroke-width="2.8"/>
  <circle cx="241.67292559351804" cy="334.3338928554836" r="2.8" fill="none" stroke="#00ff00" stroke-width="2.8"/>
  <circle cx="241.67292559351804" cy="441.2767243258763" r="2.8" fill="none" stroke="#00ff00" stroke-width="2.8"/>
  <circle cx="250.54109087166995" cy="325.2780554103469" r="2.8" fill="none" stroke="#00ff00" stroke-width="2.8"/>
  <circle cx="302.12762357902403" cy="376.864588117701" r="2.8" fill="none" stroke="#00ff00" stroke-width="2.8"/>
  <circle cx="159.27692121961368" cy="366.71245617934744" r="2.8" fill="none" stroke="#00ff00" stroke-width="2.8"/>
  <circle cx="224.00157348541453" cy="393.2267233764491" r="2.8" fill="none" stroke="#00ff00" stroke-width="2.8"/>
  <circle cx="187.6336547913148" cy="416.3003869878362" r="2.8" fill="none" stroke="#00ff00" stroke-width="2.8"/>
  <circle cx="181.6749450405028" cy="481.84112594985857" r="2.8" fill="none" stroke="#00ff00" stroke-width="2.8"/>
  <circle cx="419.1036263809789" cy="254.65534664864802" r="2.8" fill="none" stroke="#00ff00" stroke-width="2.8"/>
  <circle cx="419.1036263809789" cy="343.9899958081103" r="2.8" fill="none" stroke="#00ff00" stroke-width="2.8"/>
  <circle cx="226.71528046183002" cy="237.6384144653691" r="2.8" fill="none" stroke="#00ff00" stroke-width="2.8"/>
  <circle cx="296.764831679399" cy="271.6388962481988" r="2.8" fill="none" stroke="#00ff00" stroke-width="2.8"/>
  <circle cx="198.45695235514637" cy="194.5570284368279" r="2.8" fill="none" stroke="#00ff00" stroke-width="2.8"/>
  <circle cx="279.1954013988918" cy="166.37785022967086" r="2.8" fill="none" stroke="#00ff00" stroke-width="2.8"/>
  <circle cx="508.1850042645978" cy="366.58851176770844" r="2.8" fill="none" stroke="#00ff00" stroke-width="2.8"/>
  <circle cx="508.1850042645978" cy="445.01369401234655" r="2.8" fill="none" stroke="#00ff00" stroke-width="2.8"/>
  <circle cx="278.9931205682057" cy="449.44755314994075" r="2.8" fill="none" stroke="#00ff00" stroke-width="2.8"/>
  <circle cx="275.1892969637615" cy="523.4433631994292" r="2.8" fill="none" stroke="#00ff00" stroke-width="2.8"/>
  <circle cx="289.9234667268805" cy="176.69666612387664" r="2.8" fill="none" stroke="#00ff00" stroke-width="2.8"/>
  <circle cx="325.2200963543318" cy="247.92637105595824" r="2.8" fill="none" stroke="#00ff00" stroke-width="2.8"/>
  <circle cx="105.65460112091766" cy="273.9920418186498" r="2.8" fill="none" stroke="#00ff00" stroke-width="2.8"/>
  <circle cx="105.65460112091766" cy="366.4334708079948" r="2.8" fill="none" stroke="#00ff00" stroke-width="2.8"/>
  <circle cx="443.4246425263601" cy="276.96639001798445" r="2.8" fill="none" stroke="#00ff00" stroke-width="2.8"/>
  <circle cx="443.4246425263601" cy="352.2613272161436" r="2.8" fill="none" stroke="#00ff00" stroke-width="2.8"/>
  <circle cx="366.1412018939231" cy="513.3952812069049" r="2.8" fill="none" stroke="#00ff00" stroke-width="2.8"/>
  <circle cx="441.872035146461" cy="494.18373377360837" r="2.8" fill="none" stroke="#00ff00" stroke-width="2.8"/>
  <circle cx="255.69250293210243" cy="303.85729898202015" r="2.8" fill="none" stroke="#00ff00" stroke-width="2.8"/>
  <circle cx="305.4635123931751" cy="353.62830844309286" r="2.8" fill="none" stroke="#00ff00" stroke-width="2.8"/>
  <circle cx="125.39278920816103" cy="218.0927343713679" r="2.8" fill="none" stroke="#00ff00" stroke-width="2.8"/>
  <circle cx="168.62901520245583" cy="289.60877496348127" r="2.8" fill="none" stroke="#00ff00" stroke-width="2.8"/>
  <circle cx="258.1933896659211" cy="320.00575950026564" r="2.8" fill="none" stroke="#00ff00" stroke-width="2.8"/>
  <circle cx="313.0479199479044" cy="374.8602897822489" r="2.8" fill="none" stroke="#00ff00" stroke-width="2.8"/>
  <circle cx="499.7845288129855" cy="423.6458424620982" r="2.8" fill="none" stroke="#00ff00" stroke-width="2.8"/>
  <circle cx="460.2345506662843" cy="468.36472928487075" r="2.8" fill="none" stroke="#00ff00" stroke-width="2.8"/>
  <circle cx="288.35366888328" cy="434.6277600861565" r="2.8" fill="none" stroke="#00ff00" stroke-width="2.8"/>
  <circle cx="288.35366888328" cy="511.5376944910977" r="2.8" fill="none" stroke="#00ff00" stroke-width="2.8"/>
  <circle cx="88.20081928220667" cy="346.57484503621475" r="2.8" fill="none" stroke="#00ff00" stroke-width="2.8"/>
  <circle cx="133.6883523588505" cy="395.70618313574795" r="2.8" fill="none" stroke="#00ff00" stroke-width="2.8"/>
  <circle cx="131.4170527466471" cy="290.56811457151645" r="2.8" fill="none" stroke="#00ff00" stroke-width="2.8"/>
  <circle cx="184.07262074697817" cy="343.2236825718475" r="2.8" fill="none" stroke="#00ff00" stroke-width="2.8"/>
  <circle cx="350.9756739135602" cy="415.7892834383078" r="2.8" fill="none" stroke="#00ff00" stroke-width="2.8"/>
  <circle cx="350.9756739135602" cy="495.7922921430717" r="2.8" fill="none" stroke="#00ff00" stroke-width="2.8"/>
  <circle cx="365.77603576185" cy="210.23428135682897" r="2.8" fill="none" stroke="#00ff00" stroke-width="2.8"/>
  <circle cx="389.52797326105275" cy="269.27086277595504" r="2.8" fill="none" stroke="#00ff00" stroke-width="2.8"/>
  <circle cx="497.3414694271732" cy="204.90648419975037" r="2.8" fill="none" stroke="#00ff00" stroke-width="2.8"/>
  <circle cx="494.9867308958098" cy="264.4321785565529" r="2.8" fill="none" stroke="#00ff00" stroke-width="2.8"/>
  <circle cx="215.24397316801688" cy="433.1262090506495" r="2.8" fill="none" stroke="#00ff00" stroke-width="2.8"/>
  <circle cx="215.24397316801688" cy="515.7136874945908" r="2.8" fill="none" stroke="#00ff00" stroke-width="2.8"/>
  <circle cx="406.1990338359668" cy="209.32682301162055" r="2.8" fill="none" stroke="#00ff00" stroke-width="2.8"/>
  <circle cx="449.88547190432087" cy="253.01326107997457" r="2.8" fill="none" stroke="#00ff00" stroke-width="2.8"/>
  <circle cx="337.539772092459" cy="349.678779200596" r="2.8" fill="none" stroke="#00ff00" stroke-width="2.8"/>
  <circle cx="394.0050869046657" cy="375.3189230148889" r="2.8" fill="none" stroke="#00ff00" stroke-width="2.8"/>
  <circle cx="164.67286906072925" cy="205.9855898384009" r="2.8" fill="none" stroke="#00ff00" stroke-width="2.8"/>
  <circle cx="239.1707198722641" cy="205.9855898384009" r="2.8" fill="none" stroke="#00ff00" stroke-width="2.8"/>
  <circle cx="293.2626092651651" cy="134.5011603092234" r="2.8" fill="none" stroke="#00ff00" stroke-width="2.8"/>
  <circle cx="333.154966888819" cy="174.39351793287727" r="2.8" fill="none" stroke="#00ff00" stroke-width="2.8"/>
  <circle cx="332.65892016557245" cy="453.0178197108468" r="2.8" fill="none" stroke="#00ff00" stroke-width="2.8"/>
  <circle cx="332.65892016557245" cy="508.71235582954864" r="2.8" fill="none" stroke="#00ff00" stroke-width="2.8"/>
  <circle cx="131.19648494387891" cy="278.2161075342775" r="2.8" fill="none" stroke="#00ff00" stroke-width="2.8"/>
  <circle cx="169.18020409161906" cy="316.19982668201766" r="2.8" fill="none" stroke="#00ff00" stroke-width="2.8"/>
  <circle cx="330.6847320197395" cy="538.2514305355703" r="2.8" fill="none" stroke="#00ff00" stroke-width="2.8"/>
  <circle cx="388.962120770335" cy="524.4014851506292" r="2.8" fill="none" stroke="#00ff00" stroke-width="2.8"/>
  <circle cx="263.6556454122693" cy="162.21475173406503" r="2.8" fill="none" stroke="#00ff00" stroke-width="2.8"/>
  <circle cx="208.9046980618366" cy="183.98372367704766" r="2.8" fill="none" stroke="#00ff00" stroke-width="2.8"/>
  <circle cx="231.3730107287766" cy="527.1793853985691" r="2.8" fill="none" stroke="#00ff00" stroke-width="2.8"/>
  <circle cx="293.7367407335378" cy="551.0714130964782" r="2.8" fill="none" stroke="#00ff00" stroke-width="2.8"/>
  <circle cx="542.4030888112245" cy="384.35255553683214" r="2.8" fill="none" stroke="#00ff00" stroke-width="2.8"/>
  <circle cx="529.265172958609" cy="437.8034094137182" r="2.8" fill="none" stroke="#00ff00" stroke-width="2.8"/>
  <circle cx="167.2772762597833" cy="379.9798758503085" r="2.8" fill="none" stroke="#00ff00" stroke-width="2.8"/>
  <circle cx="219.7924279002276" cy="400.65741854265997" r="2.8" fill="none" stroke="#00ff00" stroke-width="2.8"/>
  <circle cx="350.99651878034496" cy="143.14005233044153" r="2.8" fill="none" stroke="#00ff00" stroke-width="2.8"/>
  <circle cx="403.01907544547885" cy="166.4605787579135" r="2.8" fill="none" stroke="#00ff00" stroke-width="2.8"/>
  <circle cx="223.0804620847338" cy="296.91390740489146" r="2.8" fill="none" stroke="#00ff00" stroke-width="2.8"/>
  <circle cx="174.5053353995712" cy="296.1573601959379" r="2.8" fill="none" stroke="#00ff00" stroke-width="2.8"/>
  <circle cx="409.1663206224861" cy="411.77258222181075" r="2.8" fill="none" stroke="#00ff00" stroke-width="2.8"/>
  <circle cx="456.7156575234389" cy="440.6021401885425" r="2.8" fill="none" stroke="#00ff00" stroke-width="2.8"/>
  <circle cx="187.08682171555316" cy="468.942120632761" r="2.8" fill="none" stroke="#00ff00" stroke-width="2.8"/>
  <circle cx="184.9495244576677" cy="515.453865843859" r="2.8" fill="none" stroke="#00ff00" stroke-width="2.8"/>
  <circle cx="275.2245129601124" cy="401.1330744434016" r="2.8" fill="none" stroke="#00ff00" stroke-width="2.8"/>
  <circle cx="253.04614031821143" cy="457.94117038797134" r="2.8" fill="none" stroke="#00ff00" stroke-width="2.8"/>
  <circle cx="225.15068658020317" cy="247.47498080819142" r="2.8" fill="none" stroke="#00ff00" stroke-width="2.8"/>
  <circle cx="273.0861358906942" cy="265.7096002383257" r="2.8" fill="none" stroke="#00ff00" stroke-width="2.8"/>
  <circle cx="455.08721094287785" cy="387.4500105419559" r="2.8" fill="none" stroke="#00ff00" stroke-width="2.8"/>
  <circle cx="491.2457119232503" cy="423.6085115223284" r="2.8" fill="none" stroke="#00ff00" stroke-width="2.8"/>
  <circle cx="400.1638606231122" cy="520.858795725133" r="2.8" fill="none" stroke="#00ff00" stroke-width="2.8"/>
  <circle cx="451.9976213808578" cy="498.2590893303857" r="2.8" fill="none" stroke="#00ff00" stroke-width="2.8"/>
  <circle cx="507.3537576197934" cy="458.9966277843552" r="2.8" fill="none" stroke="#00ff00" stroke-width="2.8"/>
  <circle cx="481.5493844558446" cy="505.2461886334678" r="2.8" fill="none" stroke="#00ff00" stroke-width="2.8"/>
  <circle cx="337.9200784112794" cy="563.2573689087841" r="2.8" fill="none" stroke="#00ff00" stroke-width="2.8"/>
  <circle cx="379.0617650768893" cy="547.6652731790905" r="2.8" fill="none" stroke="#00ff00" stroke-width="2.8"/>
  <circle cx="526.9775559513623" cy="350.0918646127895" r="2.8" fill="none" stroke="#00ff00" stroke-width="2.8"/>
  <circle cx="526.9775559513623" cy="395.3293474570849" r="2.8" fill="none" stroke="#00ff00" stroke-width="2.8"/>
  <circle cx="243.15342165580373" cy="140.0095637258866" r="2.8" fill="none" stroke="#00ff00" stroke-width="2.8"/>
  <circle cx="211.54878355684443" cy="165.3125593622528" r="2.8" fill="none" stroke="#00ff00" stroke-width="2.8"/>
  <circle cx="273.530539665537" cy="481.6951651396015" r="2.8" fill="none" stroke="#00ff00" stroke-width="2.8"/>
  <circle cx="289.26880881712617" cy="524.4132208529816" r="2.8" fill="none" stroke="#00ff00" stroke-width="2.8"/>
  <circle cx="251.92034938437595" cy="374.04668118469226" r="2.8" fill="none" stroke="#00ff00" stroke-width="2.8"/>
  <circle cx="251.92034938437595" cy="416.3940814217849" r="2.8" fill="none" stroke="#00ff00" stroke-width="2.8"/>
  <circle cx="157.03240612268462" cy="235.87802867264818" r="2.8" fill="none" stroke="#00ff00" stroke-width="2.8"/>
  <circle cx="173.0478470217436" cy="281.49239908244607" r="2.8" fill="none" stroke="#00ff00" stroke-width="2.8"/>
  <circle cx="270.3577461929541" cy="304.62860038013275" r="2.8" fill="none" stroke="#00ff00" stroke-width="2.8"/>
  <circle cx="300.1016036449234" cy="334.3724578321021" r="2.8" fill="none" stroke="#00ff00" stroke-width="2.8"/>
  <circle cx="346.44662367721304" cy="167.20978442764036" r="2.8" fill="none" stroke="#00ff00" stroke-width="2.8"/>
  <circle cx="331.404825047733" cy="208.08606002343635" r="2.8" fill="none" stroke="#00ff00" stroke-width="2.8"/>
  <circle cx="393.55595272182455" cy="384.7017100896153" r="2.8" fill="none" stroke="#00ff00" stroke-width="2.8"/>
  <circle cx="438.9051832157557" cy="384.7017100896153" r="2.8" fill="none" stroke="#00ff00" stroke-width="2.8"/>
  <circle cx="498.8975579650036" cy="367.5805323074229" r="2.8" fill="none" stroke="#00ff00" stroke-width="2.8"/>
  <circle cx="498.8975579650036" cy="411.9146640541081" r="2.8" fill="none" stroke="#00ff00" stroke-width="2.8"/>
  <circle cx="409.28489481370286" cy="443.62778237393366" r="2.8" fill="none" stroke="#00ff00" stroke-width="2.8"/>
  <circle cx="373.99195331862006" cy="465.02796288650285" r="2.8" fill="none" stroke="#00ff00" stroke-width="2.8"/>
  <circle cx="118.61907596069025" cy="340.406492980589" r="2.8" fill="none" stroke="#00ff00" stroke-width="2.8"/>
  <circle cx="148.57488079869967" cy="370.36229781859845" r="2.8" fill="none" stroke="#00ff00" stroke-width="2.8"/>
  <circle cx="394.61726507430905" cy="301.0644182236089" r="2.8" fill="none" stroke="#00ff00" stroke-width="2.8"/>
  <circle cx="410.27024244892067" cy="338.32230616627504" r="2.8" fill="none" stroke="#00ff00" stroke-width="2.8"/>
  <circle cx="287.49164752638546" cy="374.1633471870417" r="2.8" fill="none" stroke="#00ff00" stroke-width="2.8"/>
  <circle cx="307.37805862086464" cy="410.74971209369113" r="2.8" fill="none" stroke="#00ff00" stroke-width="2.8"/>
  <circle cx="131.93530157554116" cy="312.985128874365" r="2.8" fill="none" stroke="#00ff00" stroke-width="2.8"/>
  <circle cx="161.61023333094673" cy="342.66006062977056" r="2.8" fill="none" stroke="#00ff00" stroke-width="2.8"/>
  <circle cx="299.1519171406404" cy="128.73117153719093" r="2.8" fill="none" stroke="#00ff00" stroke-width="2.8"/>
  <circle cx="330.2213460414107" cy="159.8006004379612" r="2.8" fill="none" stroke="#00ff00" stroke-width="2.8"/>
  <circle cx="148.95076192664476" cy="488.2263049080693" r="2.8" fill="none" stroke="#00ff00" stroke-width="2.8"/>
  <circle cx="168.59194467501777" cy="508.39431694955704" r="2.8" fill="none" stroke="#00ff00" stroke-width="2.8"/>
  <circle cx="234.28142802993202" cy="514.6506852550369" r="2.8" fill="none" stroke="#00ff00" stroke-width="2.8"/>
  <circle cx="260.85979567149246" cy="541.2290528965973" r="2.8" fill="none" stroke="#00ff00" stroke-width="2.8"/>
  <circle cx="123.8765706730069" cy="405.1874018981067" r="2.8" fill="none" stroke="#00ff00" stroke-width="2.8"/>
  <circle cx="138.20187266989527" cy="437.1262173524734" r="2.8" fill="none" stroke="#00ff00" stroke-width="2.8"/>
  <circle cx="192.33158321923796" cy="214.38002394142535" r="2.8" fill="none" stroke="#00ff00" stroke-width="2.8"/>
  <circle cx="232.43188452557618" cy="214.38002394142535" r="2.8" fill="none" stroke="#00ff00" stroke-width="2.8"/>
  <circle cx="344.57544680236055" cy="248.69692599575106" r="2.8" fill="none" stroke="#00ff00" stroke-width="2.8"/>
  <circle cx="352.2559872358208" cy="279.2629269712769" r="2.8" fill="none" stroke="#00ff00" stroke-width="2.8"/>
  <circle cx="300.2769726641475" cy="444.4455630743033" r="2.8" fill="none" stroke="#00ff00" stroke-width="2.8"/>
  <circle cx="307.7644744609018" cy="476.3533185770858" r="2.8" fill="none" stroke="#00ff00" stroke-width="2.8"/>
  <circle cx="182.46344289397342" cy="329.3532116902149" r="2.8" fill="none" stroke="#00ff00" stroke-width="2.8"/>
  <circle cx="215.85793407027393" cy="341.73407552534957" r="2.8" fill="none" stroke="#00ff00" stroke-width="2.8"/>
  <circle cx="423.8269254807539" cy="477.0589410194371" r="2.8" fill="none" stroke="#00ff00" stroke-width="2.8"/>
  <circle cx="394.9371052136649" cy="476.4564047479599" r="2.8" fill="none" stroke="#00ff00" stroke-width="2.8"/>
  <circle cx="311.456023571982" cy="129.02795609228855" r="2.8" fill="none" stroke="#00ff00" stroke-width="2.8"/>
  <circle cx="335.58700260667484" cy="153.15893512698148" r="2.8" fill="none" stroke="#00ff00" stroke-width="2.8"/>
  <circle cx="459.5359067468716" cy="458.1303703322074" r="2.8" fill="none" stroke="#00ff00" stroke-width="2.8"/>
  <circle cx="490.9488633628448" cy="445.53971599019303" r="2.8" fill="none" stroke="#00ff00" stroke-width="2.8"/>
  <circle cx="90.87099065349288" cy="299.6957797321221" r="2.8" fill="none" stroke="#00ff00" stroke-width="2.8"/>
  <circle cx="89.9225007202568" cy="330.13423932921137" r="2.8" fill="none" stroke="#00ff00" stroke-width="2.8"/>
  <circle cx="443.42428299601295" cy="162.49711269007162" r="2.8" fill="none" stroke="#00ff00" stroke-width="2.8"/>
  <circle cx="443.42428299601295" cy="194.58612707279227" r="2.8" fill="none" stroke="#00ff00" stroke-width="2.8"/>
  <circle cx="219.6459651034643" cy="416.4189162946109" r="2.8" fill="none" stroke="#00ff00" stroke-width="2.8"/>
  <circle cx="232.80001634623872" cy="443.4696229515263" r="2.8" fill="none" stroke="#00ff00" stroke-width="2.8"/>
  <circle cx="360.38508461253605" cy="392.97752018914287" r="2.8" fill="none" stroke="#00ff00" stroke-width="2.8"/>
  <circle cx="378.42050650456207" cy="371.76492191216386" r="2.8" fill="none" stroke="#00ff00" stroke-width="2.8"/>
  <circle cx="282.3879253947065" cy="233.8704649625191" r="2.8" fill="none" stroke="#00ff00" stroke-width="2.8"/>
  <circle cx="299.46024288720145" cy="261.3690694861266" r="2.8" fill="none" stroke="#00ff00" stroke-width="2.8"/>
  <circle cx="317.60031942472443" cy="320.7218227979684" r="2.8" fill="none" stroke="#00ff00" stroke-width="2.8"/>
  <circle cx="317.60031942472443" cy="359.31101642006246" r="2.8" fill="none" stroke="#00ff00" stroke-width="2.8"/>
  <circle cx="464.12637997377243" cy="258.69638545371987" r="2.8" fill="none" stroke="#00ff00" stroke-width="2.8"/>
  <circle cx="464.12637997377243" cy="293.69842972400704" r="2.8" fill="none" stroke="#00ff00" stroke-width="2.8"/>
  <circle cx="249.32089445764322" cy="227.78125844777165" r="2.8" fill="none" stroke="#00ff00" stroke-width="2.8"/>
  <circle cx="275.30023944998123" cy="238.71411867323508" r="2.8" fill="none" stroke="#00ff00" stroke-width="2.8"/>
  <circle cx="164.7705553516383" cy="498.86085877785837" r="2.8" fill="none" stroke="#00ff00" stroke-width="2.8"/>
  <circle cx="192.15055540030312" cy="489.07930633272395" r="2.8" fill="none" stroke="#00ff00" stroke-width="2.8"/>
  <circle cx="479.2721351400063" cy="212.9076141098022" r="2.8" fill="none" stroke="#00ff00" stroke-width="2.8"/>
  <circle cx="501.7160681547968" cy="235.35154712459274" r="2.8" fill="none" stroke="#00ff00" stroke-width="2.8"/>
  <circle cx="266.2255393771212" cy="377.8869781291484" r="2.8" fill="none" stroke="#00ff00" stroke-width="2.8"/>
  <circle cx="266.2255393771212" cy="411.86032454904284" r="2.8" fill="none" stroke="#00ff00" stroke-width="2.8"/>
  <circle cx="182.71770925151012" cy="401.08824237097826" r="2.8" fill="none" stroke="#00ff00" stroke-width="2.8"/>
  <circle cx="159.67515376760738" cy="414.38180499025657" r="2.8" fill="none" stroke="#00ff00" stroke-width="2.8"/>
  <circle cx="169.63289822921953" cy="247.75942198758622" r="2.8" fill="none" stroke="#00ff00" stroke-width="2.8"/>
  <circle cx="177.9300439858792" cy="268.3203927092792" r="2.8" fill="none" stroke="#00ff00" stroke-width="2.8"/>
  <circle cx="369.9654284975524" cy="442.73053661643615" r="2.8" fill="none" stroke="#00ff00" stroke-width="2.8"/>
  <circle cx="398.2022749289501" cy="435.1223953475583" r="2.8" fill="none" stroke="#00ff00" stroke-width="2.8"/>
  <circle cx="544.57496891083" cy="310.5136354131284" r="2.8" fill="none" stroke="#00ff00" stroke-width="2.8"/>
  <circle cx="544.57496891083" cy="341.6569651940199" r="2.8" fill="none" stroke="#00ff00" stroke-width="2.8"/>
  <circle cx="208.44732629117277" cy="275.1116694872522" r="2.8" fill="none" stroke="#00ff00" stroke-width="2.8"/>
  <circle cx="199.7781474209279" cy="300.69331807839137" r="2.8" fill="none" stroke="#00ff00" stroke-width="2.8"/>
  <circle cx="385.47368177080153" cy="355.1544964118687" r="2.8" fill="none" stroke="#00ff00" stroke-width="2.8"/>
  <circle cx="404.40111284721326" cy="374.0819274882804" r="2.8" fill="none" stroke="#00ff00" stroke-width="2.8"/>
  <circle cx="375.2186106728254" cy="269.850320856115" r="2.8" fill="none" stroke="#00ff00" stroke-width="2.8"/>
  <circle cx="358.20047276877483" cy="286.86845876016554" r="2.8" fill="none" stroke="#00ff00" stroke-width="2.8"/>
  <circle cx="305.22649544319574" cy="386.3875522809143" r="2.8" fill="none" stroke="#00ff00" stroke-width="2.8"/>
  <circle cx="315.5291187713599" cy="411.19716526932945" r="2.8" fill="none" stroke="#00ff00" stroke-width="2.8"/>
  <circle cx="452.60306730645823" cy="171.97412335847318" r="2.8" fill="none" stroke="#00ff00" stroke-width="2.8"/>
  <circle cx="476.3406776502625" cy="181.66168325400616" r="2.8" fill="none" stroke="#00ff00" stroke-width="2.8"/>
  <circle cx="223.4278659774439" cy="255.60276560266396" r="2.8" fill="none" stroke="#00ff00" stroke-width="2.8"/>
  <circle cx="243.91603682032678" cy="264.77635717050845" r="2.8" fill="none" stroke="#00ff00" stroke-width="2.8"/>
  <circle cx="435.0888346070035" cy="404.81423120629364" r="2.8" fill="none" stroke="#00ff00" stroke-width="2.8"/>
  <circle cx="450.4733988468973" cy="420.1987954461875" r="2.8" fill="none" stroke="#00ff00" stroke-width="2.8"/>
  <circle cx="490.8693210568812" cy="371.96481101614165" r="2.8" fill="none" stroke="#00ff00" stroke-width="2.8"/>
  <circle cx="472.8402953387833" cy="389.9938367342395" r="2.8" fill="none" stroke="#00ff00" stroke-width="2.8"/>
  <circle cx="377.96829546165037" cy="309.15502361062596" r="2.8" fill="none" stroke="#00ff00" stroke-width="2.8"/>
  <circle cx="393.6274775984574" cy="324.81420574743294" r="2.8" fill="none" stroke="#00ff00" stroke-width="2.8"/>
  <circle cx="343.0281493997375" cy="330.8221553773715" r="2.8" fill="none" stroke="#00ff00" stroke-width="2.8"/>
  <circle cx="368.4831221479606" cy="330.8221553773715" r="2.8" fill="none" stroke="#00ff00" stroke-width="2.8"/>
  <circle cx="362.7507733235953" cy="201.92801986758124" r="2.8" fill="none" stroke="#00ff00" stroke-width="2.8"/>
  <circle cx="350.521299974905" cy="221.88906561420978" r="2.8" fill="none" stroke="#00ff00" stroke-width="2.8"/>
  <circle cx="372.58055536245485" cy="401.6580250785979" r="2.8" fill="none" stroke="#00ff00" stroke-width="2.8"/>
  <circle cx="399.736183710596" cy="401.6580250785979" r="2.8" fill="none" stroke="#00ff00" stroke-width="2.8"/>
  <circle cx="388.5973407341335" cy="181.94988668421925" r="2.8" fill="none" stroke="#00ff00" stroke-width="2.8"/>
  <circle cx="405.8056102250118" cy="199.1581561750975" r="2.8" fill="none" stroke="#00ff00" stroke-width="2.8"/>
  <circle cx="524.4353048365956" cy="304.7197602829945" r="2.8" fill="none" stroke="#00ff00" stroke-width="2.8"/>
  <circle cx="508.894456913068" cy="317.7877857663921" r="2.8" fill="none" stroke="#00ff00" stroke-width="2.8"/>
  <circle cx="224.4458222377118" cy="325.7285769410606" r="2.8" fill="none" stroke="#00ff00" stroke-width="2.8"/>
  <circle cx="224.4458222377118" cy="345.4774600103943" r="2.8" fill="none" stroke="#00ff00" stroke-width="2.8"/>
  <circle cx="447.420021174882" cy="231.79121775125722" r="2.8" fill="none" stroke="#00ff00" stroke-width="2.8"/>
  <circle cx="462.21221585635027" cy="246.5834124327255" r="2.8" fill="none" stroke="#00ff00" stroke-width="2.8"/>
  <circle cx="300.34555791000395" cy="206.35871468741823" r="2.8" fill="none" stroke="#00ff00" stroke-width="2.8"/>
  <circle cx="313.59658035195713" cy="219.6097371293714" r="2.8" fill="none" stroke="#00ff00" stroke-width="2.8"/>
  <circle cx="256.7276022573219" cy="344.05687237218626" r="2.8" fill="none" stroke="#00ff00" stroke-width="2.8"/>
  <circle cx="269.7208512958738" cy="357.05012141073814" r="2.8" fill="none" stroke="#00ff00" stroke-width="2.8"/>
  <circle cx="466.7816857269907" cy="439.21743525289173" r="2.8" fill="none" stroke="#00ff00" stroke-width="2.8"/>
  <circle cx="485.2943765154665" cy="439.21743525289173" r="2.8" fill="none" stroke="#00ff00" stroke-width="2.8"/>
  <circle cx="199.47559806116627" cy="531.2303789167986" r="2.8" fill="none" stroke="#00ff00" stroke-width="2.8"/>
  <circle cx="218.2630124873216" cy="523.6176295305884" r="2.8" fill="none" stroke="#00ff00" stroke-width="2.8"/>
  <circle cx="135.67762145143342" cy="447.6805220699266" r="2.8" fill="none" stroke="#00ff00" stroke-width="2.8"/>
  <circle cx="141.44884907775185" cy="461.6977559966981" r="2.8" fill="none" stroke="#00ff00" stroke-width="2.8"/>
  <circle cx="190.0575861333162" cy="425.3413830760688" r="2.8" fill="none" stroke="#00ff00" stroke-width="2.8"/>
  <circle cx="176.7517234498231" cy="438.6472457595619" r="2.8" fill="none" stroke="#00ff00" stroke-width="2.8"/>
  <circle cx="474.8196855931953" cy="348.2314693906225" r="2.8" fill="none" stroke="#00ff00" stroke-width="2.8"/>
  <circle cx="464.69836424895436" cy="358.5058724543738" r="2.8" fill="none" stroke="#00ff00" stroke-width="2.8"/>
  <circle cx="343.3079857944738" cy="360.3227744255706" r="2.8" fill="none" stroke="#00ff00" stroke-width="2.8"/>
  <circle cx="343.2931230107972" cy="375.11656290470825" r="2.8" fill="none" stroke="#00ff00" stroke-width="2.8"/>
  <circle cx="96.44193876803175" cy="344.54238620737027" r="2.8" fill="none" stroke="#00ff00" stroke-width="2.8"/>
  <circle cx="96.44193876803175" cy="360.22846335578305" r="2.8" fill="none" stroke="#00ff00" stroke-width="2.8"/>
  <circle cx="512.5252403584443" cy="286.0502930824149" r="2.8" fill="none" stroke="#00ff00" stroke-width="2.8"/>
  <circle cx="496.6795671870259" cy="294.92164486148175" r="2.8" fill="none" stroke="#00ff00" stroke-width="2.8"/>
  <circle cx="239.76266145894385" cy="297.72519535042494" r="2.8" fill="none" stroke="#00ff00" stroke-width="2.8"/>
  <circle cx="246.35884296507282" cy="314.71658967345104" r="2.8" fill="none" stroke="#00ff00" stroke-width="2.8"/>
  <circle cx="235.5547112496569" cy="136.39364414691227" r="2.8" fill="none" stroke="#00ff00" stroke-width="2.8"/>
  <circle cx="234.57463138698466" cy="150.818129283609" r="2.8" fill="none" stroke="#00ff00" stroke-width="2.8"/>
  <circle cx="115.86172581997145" cy="352.5427494233845" r="2.8" fill="none" stroke="#00ff00" stroke-width="2.8"/>
  <circle cx="126.48123418406838" cy="363.5900574546015" r="2.8" fill="none" stroke="#00ff00" stroke-width="2.8"/>
  <circle cx="141.36321548876413" cy="403.93988250622755" r="2.8" fill="none" stroke="#00ff00" stroke-width="2.8"/>
  <circle cx="140.71402318485636" cy="417.30627176947974" r="2.8" fill="none" stroke="#00ff00" stroke-width="2.8"/>
  <circle cx="410.8211661688711" cy="244.93423831955914" r="2.8" fill="none" stroke="#00ff00" stroke-width="2.8"/>
  <circle cx="407.3532638587261" cy="258.4281633312748" r="2.8" fill="none" stroke="#00ff00" stroke-width="2.8"/>
  <circle cx="485.05480725270706" cy="395.43733354812827" r="2.8" fill="none" stroke="#00ff00" stroke-width="2.8"/>
  <circle cx="488.94252220781067" cy="408.66054784122434" r="2.8" fill="none" stroke="#00ff00" stroke-width="2.8"/>
  <circle cx="180.32088282474348" cy="448.610523128949" r="2.8" fill="none" stroke="#00ff00" stroke-width="2.8"/>
  <circle cx="176.38336286060905" cy="462.92737253225783" r="2.8" fill="none" stroke="#00ff00" stroke-width="2.8"/>
  <circle cx="476.65640902584886" cy="190.1883856738547" r="2.8" fill="none" stroke="#00ff00" stroke-width="2.8"/>
  <circle cx="480.0108208969782" cy="204.03690947224172" r="2.8" fill="none" stroke="#00ff00" stroke-width="2.8"/>
  <circle cx="361.60212570038567" cy="151.75308023555363" r="2.8" fill="none" stroke="#00ff00" stroke-width="2.8"/>
  <circle cx="375.62163368996573" cy="151.75308023555363" r="2.8" fill="none" stroke="#00ff00" stroke-width="2.8"/>
  <circle cx="400.46073177163265" cy="237.47249085970228" r="2.8" fill="none" stroke="#00ff00" stroke-width="2.8"/>
  <circle cx="395.5045323373875" cy="249.16949232145106" r="2.8" fill="none" stroke="#00ff00" stroke-width="2.8"/>
  <circle cx="276.588717457408" cy="465.88716495335575" r="2.8" fill="none" stroke="#00ff00" stroke-width="2.8"/>
  <circle cx="268.81835735112213" cy="473.65752505964156" r="2.8" fill="none" stroke="#00ff00" stroke-width="2.8"/>
  <circle cx="389.1402970529484" cy="496.09849839964915" r="2.8" fill="none" stroke="#00ff00" stroke-width="2.8"/>
  <circle cx="381.6731977047519" cy="503.31936157635204" r="2.8" fill="none" stroke="#00ff00" stroke-width="2.8"/>
  <circle cx="196.6874520616581" cy="260.6157955879156" r="2.8" fill="none" stroke="#00ff00" stroke-width="2.8"/>
  <circle cx="196.6327283078099" cy="271.6326382473502" r="2.8" fill="none" stroke="#00ff00" stroke-width="2.8"/>
  <circle cx="169.44192527350586" cy="173.7102813095105" r="2.8" fill="none" stroke="#00ff00" stroke-width="2.8"/>
  <circle cx="159.5533632273038" cy="183.59884335571252" r="2.8" fill="none" stroke="#00ff00" stroke-width="2.8"/>
  <circle cx="424.36589467394754" cy="407.83720100281397" r="2.8" fill="none" stroke="#00ff00" stroke-width="2.8"/>
  <circle cx="428.3966620610506" cy="417.359074870662" r="2.8" fill="none" stroke="#00ff00" stroke-width="2.8"/>
  <circle cx="427.33948603945635" cy="288.9855814553701" r="2.8" fill="none" stroke="#00ff00" stroke-width="2.8"/>
  <circle cx="427.33948603945635" cy="300.3262589666427" r="2.8" fill="none" stroke="#00ff00" stroke-width="2.8"/>
  <circle cx="132.10883273912336" cy="238.67118671303865" r="2.8" fill="none" stroke="#00ff00" stroke-width="2.8"/>
  <circle cx="132.10883273912336" cy="248.13326637135762" r="2.8" fill="none" stroke="#00ff00" stroke-width="2.8"/>
  <circle cx="210.9764390657075" cy="236.13212921088405" r="2.8" fill="none" stroke="#00ff00" stroke-width="2.8"/>
  <circle cx="215.28211000214284" cy="246.61834457748125" r="2.8" fill="none" stroke="#00ff00" stroke-width="2.8"/>
  <circle cx="518.4958788348537" cy="439.6379697220279" r="2.8" fill="none" stroke="#00ff00" stroke-width="2.8"/>
  <circle cx="518.4958788348537" cy="451.0466993235591" r="2.8" fill="none" stroke="#00ff00" stroke-width="2.8"/>
  <circle cx="217.45270208620644" cy="367.27240621254003" r="2.8" fill="none" stroke="#00ff00" stroke-width="2.8"/>
  <circle cx="209.90319094063886" cy="366.836517263855" r="2.8" fill="none" stroke="#00ff00" stroke-width="2.8"/></g>
</svg>
