<?xml version="1.0" encoding="UTF-8" standalone="no" ?>
<!DOCTYPE svg PUBLIC "-//W3C//DTD SVG 1.1//EN" "http://www.w3.org/Graphics/SVG/1.1/DTD/svg11.dtd">
<svg xmlns="http://www.w3.org/2000/svg" xmlns:xlink="http://www.w3.org/1999/xlink" version="1.1" width="570" height="178" viewBox="0 0 570 178" xml:space="preserve">
<desc>Created with Fabric.js 4.6.0</desc>
<defs>
</defs>
<g transform="matrix(1.33 0 0 -1.33 104 105.21)" id="bYGvQxMkw0y34vfzlhtFy" clip-path="url(#CLIPPATH_1180)"  >
<clipPath id="CLIPPATH_1180" >
	<path transform="matrix(1 0 0 1 47.9 49.46) translate(-425.09, -301.19)" d="M 0 602.375 L 850.181 602.375 L 850.181 0 L 0 0 Z" stroke-linecap="round" />
</clipPath>
<path style="stroke: rgb(255,255,255); stroke-width: 3.8; stroke-dasharray: none; stroke-linecap: round; stroke-dashoffset: 0; stroke-linejoin: round; stroke-miterlimit: 10; fill: none; fill-rule: nonzero; opacity: 1;"  transform=" translate(7.25, -12.55)" d="M 0 0 L -14.49 25.096" stroke-linecap="round" />
</g>
<g transform="matrix(1.33 0 0 -1.33 104 71.74)" id="aDtta6c9uFJ2t7jH5oLLQ" clip-path="url(#CLIPPATH_1181)"  >
<clipPath id="CLIPPATH_1181" >
	<path transform="matrix(1 0 0 1 47.91 24.36) translate(-425.09, -301.19)" d="M 0 602.375 L 850.181 602.375 L 850.181 0 L 0 0 Z" stroke-linecap="round" />
</clipPath>
<path style="stroke: rgb(255,255,255); stroke-width: 3.8; stroke-dasharray: none; stroke-linecap: round; stroke-dashoffset: 0; stroke-linejoin: round; stroke-miterlimit: 10; fill: none; fill-rule: nonzero; opacity: 1;"  transform=" translate(7.25, 12.55)" d="M 0 0 L -14.49 -25.097" stroke-linecap="round" />
</g>
<g transform="matrix(1.33 0 0 -1.33 121.9 88.47)" id="8yRpEXRO2KdXgWS7QZJF2" clip-path="url(#CLIPPATH_1182)"  >
<clipPath id="CLIPPATH_1182" >
	<path transform="matrix(1 0 0 1 34.48 36.91) translate(-425.09, -301.19)" d="M 0 602.375 L 850.181 602.375 L 850.181 0 L 0 0 Z" stroke-linecap="round" />
</clipPath>
<path style="stroke: rgb(255,255,255); stroke-width: 3.8; stroke-dasharray: none; stroke-linecap: round; stroke-dashoffset: 0; stroke-linejoin: round; stroke-miterlimit: 10; fill: none; fill-rule: nonzero; opacity: 1;"  transform=" translate(20.67, 0)" d="M 0 0 L -41.342 0" stroke-linecap="round" />
</g>
<g transform="matrix(1.33 0 0 -1.33 94.34 88.47)" id="RQrBGB_69DOKFgBKJYA21" clip-path="url(#CLIPPATH_1183)"  >
<clipPath id="CLIPPATH_1183" >
	<path transform="matrix(1 0 0 1 55.15 36.91) translate(-425.09, -301.19)" d="M 0 602.375 L 850.181 602.375 L 850.181 0 L 0 0 Z" stroke-linecap="round" />
</clipPath>
<path style="stroke: rgb(255,255,255); stroke-width: 3.8; stroke-dasharray: none; stroke-linecap: round; stroke-dashoffset: 0; stroke-linejoin: round; stroke-miterlimit: 10; fill: none; fill-rule: nonzero; opacity: 1;"  transform=" translate(-22.47, -34.01)" d="M 0 0 C 0.779 -1.35 2.692 -2.454 4.251 -2.454 L 40.684 -2.454 C 42.242 -2.454 44.155 -1.35 44.934999999999995 0 L 63.151999999999994 31.552 C 63.931999999999995 32.902 63.931999999999995 35.111 63.151999999999994 36.46 L 44.935 68.013 C 44.155 69.363 42.242000000000004 70.467 40.684000000000005 70.467 L 4.251 70.467 C 2.692 70.467 0.779 69.363 0 68.013 L -18.219 36.46 C -18.998 35.111000000000004 -18.998 32.902 -18.219 31.552 z" stroke-linecap="round" />
</g>
<g transform="matrix(1.33 0 0 -1.33 94.34 88.48)" id="jBb63Nv8pLhISvVc0Ccm8" clip-path="url(#CLIPPATH_1184)"  >
<clipPath id="CLIPPATH_1184" >
	<path transform="matrix(1 0 0 1 55.15 36.91) translate(-425.09, -301.19)" d="M 0 602.375 L 850.181 602.375 L 850.181 0 L 0 0 Z" stroke-linecap="round" />
</clipPath>
<path style="stroke: none; stroke-width: 1; stroke-dasharray: none; stroke-linecap: butt; stroke-dashoffset: 0; stroke-linejoin: miter; stroke-miterlimit: 4; fill: rgb(61,181,230); fill-rule: nonzero; opacity: 1;"  transform=" translate(-7.58, 13.13)" d="M 0 0 C -7.248 -4.185 -9.732 -13.455 -5.55 -20.705 C -1.3629999999999995 -27.953999999999997 7.906 -30.435 15.154999999999998 -26.25 C 22.403 -22.063 24.889999999999997 -12.796 20.703999999999997 -5.547000000000001 C 16.519 1.7 7.251 4.185 0 0" stroke-linecap="round" />
</g>
<g transform="matrix(1.33 0 0 -1.33 84.68 105.2)" id="HCX-VzCArMWJ399ph1SAK" clip-path="url(#CLIPPATH_1185)"  >
<clipPath id="CLIPPATH_1185" >
	<path transform="matrix(1 0 0 1 62.4 49.46) translate(-425.09, -301.19)" d="M 0 602.375 L 850.181 602.375 L 850.181 0 L 0 0 Z" stroke-linecap="round" />
</clipPath>
<path style="stroke: rgb(255,255,255); stroke-width: 3.8; stroke-dasharray: none; stroke-linecap: round; stroke-dashoffset: 0; stroke-linejoin: round; stroke-miterlimit: 10; fill: none; fill-rule: nonzero; opacity: 1;"  transform=" translate(-7.24, -12.55)" d="M 0 0 L 14.489 25.094" stroke-linecap="round" />
</g>
<g transform="matrix(1.33 0 0 -1.33 66.94 88.47)" id="Cym8Ky9EjCIksfShUH5Nk" clip-path="url(#CLIPPATH_1186)"  >
<clipPath id="CLIPPATH_1186" >
	<path transform="matrix(1 0 0 1 75.7 36.91) translate(-425.09, -301.19)" d="M 0 602.375 L 850.181 602.375 L 850.181 0 L 0 0 Z" stroke-linecap="round" />
</clipPath>
<path style="stroke: rgb(255,255,255); stroke-width: 3.8; stroke-dasharray: none; stroke-linecap: round; stroke-dashoffset: 0; stroke-linejoin: round; stroke-miterlimit: 10; fill: none; fill-rule: nonzero; opacity: 1;"  transform=" translate(20.55, 0)" d="M 0 0 L -41.104 0" stroke-linecap="round" />
</g>
<g transform="matrix(1.33 0 0 -1.33 84.68 88.56)" id="mwj-o7eLqzW_QYDUyFxkX" clip-path="url(#CLIPPATH_1187)"  >
<clipPath id="CLIPPATH_1187" >
	<path transform="matrix(1 0 0 1 62.4 36.98) translate(-425.09, -301.19)" d="M 0 602.375 L 850.181 602.375 L 850.181 0 L 0 0 Z" stroke-linecap="round" />
</clipPath>
<path style="stroke: rgb(255,255,255); stroke-width: 3.8; stroke-dasharray: none; stroke-linecap: round; stroke-dashoffset: 0; stroke-linejoin: miter; stroke-miterlimit: 10; fill: none; fill-rule: nonzero; opacity: 1;"  transform=" translate(-7.24, 25.1)" d="M 0 0 L 14.489 -25.097 L 0 -50.191 L 14.489 -25.097" stroke-linecap="round" />
</g>
<g transform="matrix(1.33 0 0 -1.33 529.64 90.27)" id="Y5xPQTueQGXQseOHMKeZ2" clip-path="url(#CLIPPATH_1188)"  >
<clipPath id="CLIPPATH_1188" >
	<path transform="matrix(1 0 0 1 -271.32 38.26) translate(-425.09, -301.19)" d="M 0 602.375 L 850.181 602.375 L 850.181 0 L 0 0 Z" stroke-linecap="round" />
</clipPath>
<path style="stroke: rgb(255,255,255); stroke-width: 4.9; stroke-dasharray: none; stroke-linecap: round; stroke-dashoffset: 0; stroke-linejoin: round; stroke-miterlimit: 10; fill: none; fill-rule: nonzero; opacity: 1;"  transform=" translate(0, 20.34)" d="M 0 0 L 0 -40.675" stroke-linecap="round" />
</g>
<g transform="matrix(1.33 0 0 -1.33 526.46 63.16)" id="yw6YwhGzygmE9KsSrhhTJ" clip-path="url(#CLIPPATH_1189)"  >
<clipPath id="CLIPPATH_1189" >
	<path transform="matrix(1 0 0 1 -268.94 17.92) translate(-425.09, -301.19)" d="M 0 602.375 L 850.181 602.375 L 850.181 0 L 0 0 Z" stroke-linecap="round" />
</clipPath>
<path style="stroke: rgb(255,255,255); stroke-width: 4.9; stroke-dasharray: none; stroke-linecap: round; stroke-dashoffset: 0; stroke-linejoin: round; stroke-miterlimit: 10; fill: none; fill-rule: nonzero; opacity: 1;"  transform=" translate(2.39, 0)" d="M 0 0 L -4.771 0" stroke-linecap="round" />
</g>
<g transform="matrix(1.33 0 0 -1.33 309.86 111.28)" id="0AP-9a7WhVJQRtQWI-Rw1" clip-path="url(#CLIPPATH_1190)"  >
<clipPath id="CLIPPATH_1190" >
	<path transform="matrix(1 0 0 1 -106.49 54.01) translate(-425.09, -301.19)" d="M 0 602.375 L 850.181 602.375 L 850.181 0 L 0 0 Z" stroke-linecap="round" />
</clipPath>
<path style="stroke: rgb(255,255,255); stroke-width: 4.81; stroke-dasharray: none; stroke-linecap: butt; stroke-dashoffset: 0; stroke-linejoin: round; stroke-miterlimit: 10; fill: none; fill-rule: nonzero; opacity: 1;"  transform=" translate(0, 6.82)" d="M 0 0 L 0 -13.644" stroke-linecap="round" />
</g>
<g transform="matrix(1.33 0 0 -1.33 472.55 111.28)" id="YAFIQ4kppuJlOWb1D4jAY" clip-path="url(#CLIPPATH_1191)"  >
<clipPath id="CLIPPATH_1191" >
	<path transform="matrix(1 0 0 1 -228.51 54.01) translate(-425.09, -301.19)" d="M 0 602.375 L 850.181 602.375 L 850.181 0 L 0 0 Z" stroke-linecap="round" />
</clipPath>
<path style="stroke: rgb(255,255,255); stroke-width: 4.81; stroke-dasharray: none; stroke-linecap: butt; stroke-dashoffset: 0; stroke-linejoin: round; stroke-miterlimit: 10; fill: none; fill-rule: nonzero; opacity: 1;"  transform=" translate(0, 6.82)" d="M 0 0 L 0 -13.644" stroke-linecap="round" />
</g>
<g transform="matrix(1.33 0 0 -1.33 309.86 95.43)" id="JvfFmppfGWcyeHVtjbPBl" clip-path="url(#CLIPPATH_1192)"  >
<clipPath id="CLIPPATH_1192" >
	<path transform="matrix(1 0 0 1 -106.49 42.13) translate(-425.09, -301.19)" d="M 0 602.375 L 850.181 602.375 L 850.181 0 L 0 0 Z" stroke-linecap="round" />
</clipPath>
<path style="stroke: rgb(255,255,255); stroke-width: 4.81; stroke-dasharray: none; stroke-linecap: round; stroke-dashoffset: 0; stroke-linejoin: round; stroke-miterlimit: 10; fill: none; fill-rule: nonzero; opacity: 1;"  transform=" translate(0, 6.82)" d="M 0 0 L 0 -13.644" stroke-linecap="round" />
</g>
<g transform="matrix(1.33 0 0 -1.33 472.55 95.43)" id="Tp4CpJDcElkg75wbMnaMC" clip-path="url(#CLIPPATH_1193)"  >
<clipPath id="CLIPPATH_1193" >
	<path transform="matrix(1 0 0 1 -228.51 42.13) translate(-425.09, -301.19)" d="M 0 602.375 L 850.181 602.375 L 850.181 0 L 0 0 Z" stroke-linecap="round" />
</clipPath>
<path style="stroke: rgb(255,255,255); stroke-width: 4.81; stroke-dasharray: none; stroke-linecap: round; stroke-dashoffset: 0; stroke-linejoin: round; stroke-miterlimit: 10; fill: none; fill-rule: nonzero; opacity: 1;"  transform=" translate(0, 6.82)" d="M 0 0 L 0 -13.644" stroke-linecap="round" />
</g>
<g transform="matrix(1.33 0 0 -1.33 529.64 110.64)" id="q-a15nllcdYMlC1_j_pyb" clip-path="url(#CLIPPATH_1194)"  >
<clipPath id="CLIPPATH_1194" >
	<path transform="matrix(1 0 0 1 -271.32 53.53) translate(-425.09, -301.19)" d="M 0 602.375 L 850.181 602.375 L 850.181 0 L 0 0 Z" stroke-linecap="round" />
</clipPath>
<path style="stroke: rgb(255,255,255); stroke-width: 4.9; stroke-dasharray: none; stroke-linecap: square; stroke-dashoffset: 0; stroke-linejoin: round; stroke-miterlimit: 10; fill: none; fill-rule: nonzero; opacity: 1;"  transform=" translate(0, 5.06)" d="M 0 0 L 0 -10.128" stroke-linecap="round" />
</g>
<g transform="matrix(1.33 0 0 -1.33 457.35 102.18)" id="xn9sxRjGT0eOBVvoxTVs5" clip-path="url(#CLIPPATH_1195)"  >
<clipPath id="CLIPPATH_1195" >
	<path transform="matrix(1 0 0 1 -217.11 47.19) translate(-425.09, -301.19)" d="M 0 602.375 L 850.181 602.375 L 850.181 0 L 0 0 Z" stroke-linecap="round" />
</clipPath>
<path style="stroke: rgb(255,255,255); stroke-width: 4.81; stroke-dasharray: none; stroke-linecap: round; stroke-dashoffset: 0; stroke-linejoin: round; stroke-miterlimit: 10; fill: none; fill-rule: nonzero; opacity: 1;"  transform=" translate(11.4, 0)" d="M 0 0 C 0 -6.3 -5.104 -11.404 -11.402 -11.404 C -17.703 -11.404 -22.808999999999997 -6.3 -22.808999999999997 0 C -22.808999999999997 6.299 -17.702999999999996 11.403 -11.401999999999997 11.403 C -5.104 11.403 0 6.299 0 0 Z" stroke-linecap="round" />
</g>
<g transform="matrix(1.33 0 0 -1.33 294.65 102.18)" id="IpFWVotpaKrG1WOLzNXKA" clip-path="url(#CLIPPATH_1196)"  >
<clipPath id="CLIPPATH_1196" >
	<path transform="matrix(1 0 0 1 -95.08 47.19) translate(-425.09, -301.19)" d="M 0 602.375 L 850.181 602.375 L 850.181 0 L 0 0 Z" stroke-linecap="round" />
</clipPath>
<path style="stroke: rgb(255,255,255); stroke-width: 4.81; stroke-dasharray: none; stroke-linecap: round; stroke-dashoffset: 0; stroke-linejoin: round; stroke-miterlimit: 10; fill: none; fill-rule: nonzero; opacity: 1;"  transform=" translate(11.41, 0)" d="M 0 0 C 0 -6.3 -5.107 -11.404 -11.404 -11.404 C -17.705 -11.404 -22.810000000000002 -6.3 -22.810000000000002 0 C -22.810000000000002 6.299 -17.705000000000002 11.403 -11.404000000000002 11.403 C -5.107 11.403 0 6.299 0 0 Z" stroke-linecap="round" />
</g>
<g transform="matrix(1.33 0 0 -1.33 378.16 102.97)" id="fkOuFTv_VwOXbzGy82mUV" clip-path="url(#CLIPPATH_1197)"  >
<clipPath id="CLIPPATH_1197" >
	<path transform="matrix(1 0 0 1 -157.72 47.79) translate(-425.09, -301.19)" d="M 0 602.375 L 850.181 602.375 L 850.181 0 L 0 0 Z" stroke-linecap="round" />
</clipPath>
<path style="stroke: rgb(255,255,255); stroke-width: 4.81; stroke-dasharray: none; stroke-linecap: round; stroke-dashoffset: 0; stroke-linejoin: round; stroke-miterlimit: 10; fill: none; fill-rule: nonzero; opacity: 1;"  transform=" translate(10.22, 11.11)" d="M 0 0 L -20.445 -22.215" stroke-linecap="round" />
</g>
<g transform="matrix(1.33 0 0 -1.33 376.04 105.27)" id="EFgIv2GQ8nWAhNH_4tLB6" clip-path="url(#CLIPPATH_1198)"  >
<clipPath id="CLIPPATH_1198" >
	<path transform="matrix(1 0 0 1 -156.13 49.51) translate(-425.09, -301.19)" d="M 0 602.375 L 850.181 602.375 L 850.181 0 L 0 0 Z" stroke-linecap="round" />
</clipPath>
<path style="stroke: rgb(255,255,255); stroke-width: 4.81; stroke-dasharray: none; stroke-linecap: square; stroke-dashoffset: 0; stroke-linejoin: round; stroke-miterlimit: 10; fill: none; fill-rule: nonzero; opacity: 1;"  transform=" translate(8.64, 9.38)" d="M 0 0 L -17.271 -18.767" stroke-linecap="round" />
</g>
<g transform="matrix(1.33 0 0 -1.33 380.27 105.27)" id="Hsap-E8ItpCZNgzEON6VJ" clip-path="url(#CLIPPATH_1199)"  >
<clipPath id="CLIPPATH_1199" >
	<path transform="matrix(1 0 0 1 -159.3 49.51) translate(-425.09, -301.19)" d="M 0 602.375 L 850.181 602.375 L 850.181 0 L 0 0 Z" stroke-linecap="round" />
</clipPath>
<path style="stroke: rgb(255,255,255); stroke-width: 4.81; stroke-dasharray: none; stroke-linecap: square; stroke-dashoffset: 0; stroke-linejoin: round; stroke-miterlimit: 10; fill: none; fill-rule: nonzero; opacity: 1;"  transform=" translate(-8.64, 9.38)" d="M 0 0 L 17.272 -18.767" stroke-linecap="round" />
</g>
<g transform="matrix(1.33 0 0 -1.33 378.16 102.97)" id="kR-7du60BqObLVF9K0fqr" clip-path="url(#CLIPPATH_1200)"  >
<clipPath id="CLIPPATH_1200" >
	<path transform="matrix(1 0 0 1 -157.72 47.79) translate(-425.09, -301.19)" d="M 0 602.375 L 850.181 602.375 L 850.181 0 L 0 0 Z" stroke-linecap="round" />
</clipPath>
<path style="stroke: rgb(255,255,255); stroke-width: 4.81; stroke-dasharray: none; stroke-linecap: round; stroke-dashoffset: 0; stroke-linejoin: round; stroke-miterlimit: 10; fill: none; fill-rule: nonzero; opacity: 1;"  transform=" translate(-10.22, 11.11)" d="M 0 0 L 20.445 -22.215" stroke-linecap="round" />
</g>
<g transform="matrix(1.33 0 0 -1.33 213.78 102.19)" id="DFMldiEdjp6ooqmRFhZ5K" clip-path="url(#CLIPPATH_1201)"  >
<clipPath id="CLIPPATH_1201" >
	<path transform="matrix(1 0 0 1 -34.43 47.19) translate(-425.09, -301.19)" d="M 0 602.375 L 850.181 602.375 L 850.181 0 L 0 0 Z" stroke-linecap="round" />
</clipPath>
<path style="stroke: rgb(255,255,255); stroke-width: 4.81; stroke-dasharray: none; stroke-linecap: round; stroke-dashoffset: 0; stroke-linejoin: miter; stroke-miterlimit: 10; fill: none; fill-rule: nonzero; opacity: 1;"  transform=" translate(-11.75, 10.7)" d="M 0 0 L 11.745 -21.407 L 23.498 0" stroke-linecap="round" />
</g>
</svg>