<svg width="154" height="24" viewBox="0 0 154 24" fill="none" xmlns="http://www.w3.org/2000/svg">
    <g style="mix-blend-mode:difference" clip-path="url(#clip0_8813_113)">
        <path d="M127.391 6.66724C122.818 6.66724 119.314 10.2336 119.314 15.3336C119.314 20.4336 122.819 24 127.391 24C131.963 24 135.434 20.4336 135.434 15.3336C135.434 10.2336 131.929 6.66724 127.391 6.66724ZM127.391 20.8008C124.521 20.8008 122.752 18.534 122.752 15.3336C122.752 12.1332 124.521 9.86644 127.391 9.86644C130.261 9.86644 131.996 12.1332 131.996 15.3336C131.996 18.534 130.261 20.8008 127.391 20.8008Z" fill="black"/>
        <path d="M153.29 15.6C153.29 9.63364 149.819 6.66724 145.58 6.66724C140.841 6.66724 137.637 10.434 137.637 15.3336C137.637 20.2332 140.941 24 145.78 24C149.218 24 151.655 22.1004 152.856 19.5336L150.153 17.8008C149.518 19.5336 147.95 20.868 145.747 20.868C143.048 20.868 141.235 18.8928 141.029 16.3008H153.29V15.6012V15.6ZM145.547 9.73324C147.97 9.73324 149.589 11.4804 149.768 13.4664H141.089C141.478 11.2692 143.277 9.73324 145.547 9.73324Z" fill="black"/>
        <path d="M105.697 0.333984H100.058V23.6668H105.697C112.572 23.6668 117.312 18.9004 117.312 12.0004C117.312 5.10038 112.572 0.333984 105.697 0.333984ZM105.697 20.2672H103.561V3.73358H105.697C110.67 3.73358 113.774 6.93398 113.774 12.0004C113.774 17.0668 110.67 20.2672 105.697 20.2672Z" fill="black"/>
        <path d="M10.8471 10.8672L7.37598 9.5676C5.77438 8.9676 4.40588 8.0676 4.40588 6.3012C4.40588 4.434 5.90775 3.2016 8.04401 3.2016C10.0469 3.2016 11.6485 4.3344 12.516 6.3348L15.1857 4.4676C13.7175 1.5672 11.1475 0 8.04281 0C3.87122 0 0.934763 2.6664 0.934763 6.5004C0.934763 9.4008 2.66972 11.5008 5.77438 12.6672L9.34523 14.0004C11.3806 14.7672 12.2817 15.9 12.2817 17.4672C12.2817 19.4676 10.7462 20.8008 8.37682 20.8008C6.00747 20.8008 4.00458 19.368 2.90281 16.7004L0 18.5664C1.43458 21.9996 4.57289 24 8.37682 24C12.7491 24 15.7528 21.3336 15.7528 17.3328C15.7528 14.2656 13.9842 12.0324 10.8471 10.866V10.8672Z" fill="black"/>
        <path d="M57.9378 9.20365C56.9045 7.66885 55.1492 6.66565 52.9985 6.66565C48.8605 6.66565 45.5889 10.3329 45.5889 15.3321C45.5889 20.3312 48.8593 23.9985 52.9985 23.9985C55.1972 23.9985 56.9814 22.9713 58.0051 21.3717V23.666H61.3429V0.333252H57.939V9.20365H57.9378ZM53.5319 20.7992C50.8286 20.7992 49.0263 18.5324 49.0263 15.3321C49.0263 12.1317 50.8286 9.86485 53.5319 9.86485C56.2353 9.86485 58.0376 12.1317 58.0376 15.3321C58.0376 18.5324 56.2353 20.7992 53.5319 20.7992Z" fill="black"/>
        <path d="M24.6641 2.93308H21.2267L19.4244 6.99989H16.9878V10.0671H19.2911V18.9999C19.2911 22.4667 21.5607 23.6667 23.9637 23.6667H26.1336V20.4663H24.8324C23.1298 20.4663 22.6961 20.0331 22.6961 18.3327V10.0659H26.1336V6.99868H22.8967L24.6653 2.93188L24.6641 2.93308Z" fill="black"/>
        <path d="M39.3148 16.5338C39.3148 18.9674 38.1133 20.801 35.744 20.801C33.6413 20.801 32.5396 19.3682 32.5396 17.0678V6.99976H29.1357V17.5334C29.1357 21.533 31.4714 24.0002 34.7756 24.0002C36.8469 24.0002 38.6059 22.9994 39.3809 21.107V23.6666H42.7186V6.99976H39.3148V16.5326V16.5338Z" fill="black"/>
        <path d="M68.5849 0.333252H65.1138V3.73285H68.5849V0.333252Z" fill="black"/>
        <path d="M68.5513 6.99902H65.1475V23.6658H68.5513V6.99902Z" fill="black"/>
        <path d="M79.4993 6.66718C74.9264 6.66718 71.4229 10.2336 71.4229 15.3336C71.4229 20.4336 74.9276 24 79.4993 24C84.071 24 87.5421 20.4336 87.5421 15.3336C87.5421 10.2336 84.0373 6.66718 79.4993 6.66718ZM79.4993 20.8008C76.6289 20.8008 74.8603 18.534 74.8603 15.3336C74.8603 12.1332 76.6289 9.86638 79.4993 9.86638C82.3697 9.86638 84.1046 12.1332 84.1046 15.3336C84.1046 18.534 82.3697 20.8008 79.4993 20.8008Z" fill="black"/>
    </g>
    <defs>
        <clipPath id="clip0_8813_113">
            <rect width="153.29" height="24" fill="black"/>
        </clipPath>
    </defs>
</svg>
