<?xml version="1.0" encoding="UTF-8"?>
<svg id="Capa_2" data-name="Capa 2" xmlns="http://www.w3.org/2000/svg" viewBox="0 0 1583.34 693.52">
  <defs>
    <style>
      .cls-1 {
        fill: #fff;
      }
    </style>
  </defs>
  <path class="cls-1" d="M346.43,101.99s1.69,42.64-20.61,79.62c-22.59,44.61-53.93,67.76-79.06,93.74,0,0,16.85-30.21-2.45-32.09-22.87-.28-111.06-12.24-171.67,90.92-44.42,89.6,17.32,312.09,156.61,322.26,46.31,1.88,94.49-32.38,112.56-45.93-27.48,37.65-118.96,118.96-210.45,65.13,0,0-192.66-122.45-111.34-363.01,36.05-83.48,76.33-88.38,61.65-113.6-9.61-12.25-29.36-16.56-29.36-16.56,0,0,2.45-2.82,19.95-2.54,17.5.28,185.22,7.06,209.79-3.11,24.56-10.16,60.14-48,64.38-74.82h0Z"/>
  <path class="cls-1" d="M1455,225.8l-235.06,416.19s16.24-9.88,69.04-9.88,111.06,14.31,154.16,40.09,135.81-7.06,140.05-88.09-82.45-164.33-163.76-170.82c-148.23,0-165.01.06-165.01.06v14.12l165.29-.06s29.93,1.69,64.38,23.72,89.51,64.09,83.58,133.84c-8.47,66.64-62.4,78.78-86.4,56.75-24-22.02-85.55-51.95-129.32-50.82-31.91.28-39.25,5.08-39.25,5.08l253.55-434.26s19.48-34.73,16.38-64.94c-7.34,50.82-64.52,73.69-77.36,73.69h-186.35s-28.8-1.41-29.36,71.72c1.41,40.66,7.91,52.24,7.91,52.24,0,0,1.98-68.33,26.54-68.33s131.01-.28,131.01-.28l-.02-.02Z"/>
  <path class="cls-1" d="M990.24,244.8v299.86s-.56,88.94,72.47,103.15V244.8s-.19-10.73,8.56-10.73h21.74s23.86,1.13,5.22,29.51c21.32-9.81,100.09-76.8,99.53-150.92-29.36,63.81-81.6,58.73-81.6,58.73h-183.81c-6.85,0-29.36,13.55-31.34,58.16-1.98,44.61,49.69,79.34,49.69,79.34,0,0-27.58-32.85-25.13-51.71,3.11-22.83,14.12-23.68,25.69-23.68h28.52s10.45.56,10.45,11.29h0Z"/>
  <path class="cls-1" d="M393.06,417.62s75.98,1.79,75.98,73.31c0-71.64,75.98-73.31,75.98-73.31,0,0-75.98,2.78-75.98-73.31,0,76.11-75.98,73.31-75.98,73.31Z"/>
  <path class="cls-1" d="M1160.05,54.49s59.89,1.33,59.89,54.49c0-53.25,59.89-54.49,59.89-54.49,0,0-59.89,2.06-59.89-54.49,0,56.58-59.89,54.49-59.89,54.49Z"/>
  <polygon class="cls-1" points="680.39 413.34 597.9 413.34 545.03 418.52 598.56 427.46 680.39 427.46 680.39 413.34"/>
  <g>
    <path class="cls-1" d="M876.98,413.34c3.92,4.76,7.62,9.61,10.92,14.12h95.74v-14.12h-106.66Z"/>
    <path class="cls-1" d="M789.43,413.34h-21.04v14.12h32.56c-4.7-6.09-8.49-10.67-11.53-14.12h.01Z"/>
  </g>
  <rect class="cls-1" x="1070.41" y="413.34" width="103.34" height="14.12"/>
  <g>
    <path class="cls-1" d="M765.13,386.51s.45,0,1.29-.06c-.87-.06-1.29.06-1.29.06Z"/>
    <path class="cls-1" d="M1278.45,171.67c-50.95,0-75.17.63-86.68,1.23-3.11,6.56-6.63,12.93-10.45,19.06v363.89s-1.35,109.97-108.99,108.37c-57.6,0-91.48-60.78-91.48-60.78,0,0-109.55-220.19-148.52-217.9,39.15-39.76,105.79-189.99,16.19-208.72-55.98-4.56-188.42-.57-188.42-.57,0,0,27.67,5.16,28.24,19.5.56,14.34.56,345.77.56,345.77l72.28,103.79V206.65s5.65-26.38,30.49-15.48c24.85,10.89,82.45,56.77,51.95,126.15-27.55,62.68-69.38,68.58-77.21,69.13,5.94.41,33.06,9.17,94.15,121.2,37.27,65.94,87.53,190.99,207.81,176.65,130.45-17.78,172.8-147.37,179.58-216.18.56-97.48,0-272.94,0-272.94,0,0,.56-21.79,30.49-23.51h.01Z"/>
  </g>
  <path class="cls-1" d="M365.56,254.21c10.59-18.64,16.24-17.36,16.24-17.36h94.45c10.87,0,23.48,12.56,23.48,12.56,0,0,80.75,103.34,91.48,118.96,10.73,15.62,22.4,15.62,22.4,15.62h66.79v-9.59c-30.29-15.54-71.29-84.94-112.53-148.53-39.15-60.24-64-51.58-64-51.58,0,0-47.72-2.35-165.67-2.61-1.04,2.15-2.15,4.29-3.34,6.43,45.8,20.12,29.72,49.27,29.72,49.27,0,0-75.29,134.4-98.64,155.67-21.46,14.87-43.29-11.48-43.29-11.48,0,0,108.8,146.82,150.59,204.05,41.79,57.22,112.19,77.55,196.89,36.89,82.07-37.65,81.32-98.64,81.32-98.64,0,0-9.04,57.22-85.84,84.33-76.8,27.11-119.34-27.86-119.34-27.86,0,0-139.29-189.36-142.26-195.86-2.96-6.5,0-13.55,0-13.55,0,0,50.96-88.09,61.55-106.73h0Z"/>
</svg>