<?xml version="1.0" encoding="UTF-8" standalone="no"?>
<!DOCTYPE svg PUBLIC "-//W3C//DTD SVG 1.1//EN" "http://www.w3.org/Graphics/SVG/1.1/DTD/svg11.dtd">
<svg xmlns="http://www.w3.org/2000/svg" version="1.1" viewBox="0 0 1024 1024" width="1024.0pt" height="1024.0pt">
<path d="M 0.00 0.00 L 502.50 0.00 C 471.51 0.70 440.62 3.81 410.26 10.14 C 395.07 12.93 380.36 17.22 365.49 21.32 C 328.10 32.45 292.08 47.72 258.31 67.30 C 235.79 80.21 214.28 94.79 193.91 110.88 C 181.53 120.30 170.60 130.69 159.10 141.14 C 152.04 148.05 144.86 154.90 138.27 162.27 C 93.77 209.48 58.48 265.45 34.86 325.87 C 27.67 345.00 21.00 364.51 15.97 384.34 C 9.39 409.44 5.20 435.22 2.45 461.01 C 1.40 473.80 0.43 486.62 0.00 499.45 L 0.00 0.00 Z" fill="transparent" />
<path d="M 502.50 0.00 L 522.61 0.00 L 523.58 0.02 L 524.34 0.05 C 594.09 1.55 663.55 17.97 726.92 47.06 C 767.46 66.00 805.89 89.98 840.10 118.87 C 880.89 152.72 915.80 193.04 944.33 237.66 C 949.52 245.88 954.30 254.36 959.33 262.68 C 963.03 268.78 966.01 275.32 969.36 281.65 C 973.14 289.25 977.09 296.81 980.39 304.63 C 986.05 317.78 991.67 331.16 996.17 344.75 C 999.81 355.95 1003.53 367.10 1006.50 378.50 C 1010.29 391.36 1012.85 404.33 1015.50 417.56 C 1020.69 443.77 1022.84 470.17 1024.00 496.83 L 1024.00 525.75 C 1023.13 559.84 1018.79 593.75 1011.24 627.02 C 1004.48 655.26 996.08 683.01 984.73 709.78 C 961.26 765.66 928.08 817.35 886.61 861.61 C 879.36 869.68 871.68 877.35 863.67 884.68 C 802.09 943.20 725.32 985.74 643.08 1007.00 C 630.86 1010.51 618.51 1013.11 606.02 1015.44 C 586.04 1019.55 565.28 1021.49 544.95 1022.91 C 536.82 1023.64 528.60 1023.70 520.43 1024.00 L 504.23 1024.00 C 452.98 1023.11 401.94 1014.80 353.15 999.04 C 331.25 991.75 309.53 983.40 288.88 973.07 C 278.66 968.14 268.38 963.01 258.68 957.15 C 210.83 930.13 167.39 895.18 130.85 854.12 C 114.39 835.76 99.12 816.10 85.42 795.59 C 71.91 774.86 59.36 753.57 48.98 731.08 C 40.53 714.13 34.02 696.50 27.58 678.72 C 22.38 663.83 18.48 648.48 14.37 633.26 C 10.41 615.79 6.55 598.01 4.39 580.22 C 2.02 561.03 0.23 542.00 0.00 522.64 L 0.00 499.45 C 0.43 486.62 1.40 473.80 2.45 461.01 C 5.20 435.22 9.39 409.44 15.97 384.34 C 21.00 364.51 27.67 345.00 34.86 325.87 C 58.48 265.45 93.77 209.48 138.27 162.27 C 144.86 154.90 152.04 148.05 159.10 141.14 C 170.60 130.69 181.53 120.30 193.91 110.88 C 214.28 94.79 235.79 80.21 258.31 67.30 C 292.08 47.72 328.10 32.45 365.49 21.32 C 380.36 17.22 395.07 12.93 410.26 10.14 C 440.62 3.81 471.51 0.70 502.50 0.00 Z" fill="#1d8eda" />
<path d="M 522.61 0.00 L 1024.00 0.00 L 1024.00 496.83 C 1022.84 470.17 1020.69 443.77 1015.50 417.56 C 1012.85 404.33 1010.29 391.36 1006.50 378.50 C 1003.53 367.10 999.81 355.95 996.17 344.75 C 991.67 331.16 986.05 317.78 980.39 304.63 C 977.09 296.81 973.14 289.25 969.36 281.65 C 966.01 275.32 963.03 268.78 959.33 262.68 C 954.30 254.36 949.52 245.88 944.33 237.66 C 915.80 193.04 880.89 152.72 840.10 118.87 C 805.89 89.98 767.46 66.00 726.92 47.06 C 663.55 17.97 594.09 1.55 524.34 0.05 L 523.58 0.02 L 522.61 0.00 Z" fill="transparent" />
<path d="M 722.49 173.50 C 726.93 179.61 730.17 186.68 731.69 194.09 C 734.26 206.08 734.66 218.79 734.19 231.02 C 732.07 273.80 726.47 316.80 718.92 358.95 C 715.02 383.99 710.21 408.90 705.35 433.77 C 702.60 445.52 700.47 457.39 698.05 469.22 C 696.71 475.41 695.03 481.49 694.10 487.77 C 722.08 487.41 750.05 487.19 778.04 487.34 C 791.41 487.47 804.36 499.23 803.86 513.00 C 804.16 518.58 803.12 523.31 800.05 527.99 C 796.48 534.00 790.89 536.77 785.22 540.40 C 771.43 549.37 757.17 557.57 743.28 566.37 C 727.36 576.13 711.56 586.09 695.61 595.79 C 685.03 602.53 674.35 609.07 663.63 615.58 C 661.09 626.62 659.18 637.76 656.42 648.74 C 654.03 658.34 652.12 668.04 650.46 677.79 C 648.16 691.30 645.47 704.42 644.04 718.02 C 643.05 727.60 641.58 736.82 641.43 746.43 C 673.31 746.22 705.12 746.16 737.00 746.78 C 749.66 747.74 762.31 747.09 774.95 748.13 C 782.18 748.71 788.94 747.80 795.58 750.17 C 802.51 752.44 808.39 757.89 811.09 764.67 C 813.03 769.61 813.17 775.33 812.27 780.51 C 810.57 789.83 802.89 797.15 793.95 799.71 C 786.65 801.45 778.40 800.09 770.96 799.72 C 718.40 797.63 665.57 798.19 612.97 798.71 C 608.64 798.70 604.33 799.01 600.00 799.21 C 590.03 799.50 579.99 799.44 570.03 800.13 C 559.39 800.67 548.69 800.36 538.06 801.15 C 529.07 801.67 520.07 801.36 511.03 802.04 C 503.36 802.61 495.69 802.29 488.01 802.98 C 480.67 803.63 473.35 803.36 465.98 803.87 C 456.32 804.63 446.63 804.43 436.97 805.23 C 411.96 806.07 386.96 807.81 361.97 808.85 C 356.96 809.25 352.00 809.82 347.01 808.83 C 341.10 807.78 335.84 804.61 331.81 800.21 C 323.80 791.79 323.12 777.42 329.98 768.11 C 334.15 761.86 340.80 758.95 346.90 754.90 C 361.05 745.67 375.40 736.76 389.67 727.71 C 404.39 717.94 419.64 709.01 434.35 699.22 C 456.11 685.74 477.57 671.81 499.35 658.36 C 511.05 650.60 523.14 643.47 534.91 635.81 C 559.75 620.47 584.45 604.87 609.15 589.30 C 611.97 587.50 615.29 585.94 617.64 583.55 C 619.46 579.92 619.75 575.41 620.76 571.49 C 623.12 561.80 625.45 552.09 627.87 542.42 C 609.24 542.64 590.62 544.03 572.02 545.01 C 527.91 547.49 483.98 550.19 439.97 554.20 C 424.24 555.31 408.66 557.36 392.99 559.13 C 389.02 559.65 384.75 559.86 380.91 561.02 C 378.88 561.99 377.47 564.44 376.11 566.18 C 368.85 576.82 360.36 586.47 352.90 596.95 C 345.86 606.55 338.87 616.17 331.59 625.58 C 324.44 635.42 317.22 645.21 309.91 654.93 C 298.64 670.66 287.21 686.26 275.94 701.98 C 265.92 715.35 256.61 729.22 246.73 742.70 C 237.38 755.45 228.81 768.75 219.38 781.43 C 216.63 785.21 214.23 789.63 210.94 792.92 C 205.93 797.67 198.88 800.51 191.96 800.20 C 185.35 799.70 178.55 796.92 173.93 792.07 C 167.44 785.33 164.82 775.22 167.44 766.21 C 168.44 762.82 170.29 760.03 172.36 757.21 C 179.95 747.21 186.65 736.41 194.10 726.27 C 205.83 710.27 216.98 693.84 228.83 677.92 C 239.06 663.19 249.97 648.96 260.30 634.30 C 271.27 619.93 281.61 605.11 292.60 590.75 C 303.10 576.24 314.07 562.09 324.73 547.70 C 331.65 537.72 339.60 528.58 346.76 518.79 C 355.62 506.74 365.13 495.22 374.14 483.29 C 383.02 471.18 392.60 459.69 401.88 447.91 C 413.27 433.02 425.38 418.71 436.98 403.98 C 450.48 387.23 464.31 370.76 478.12 354.26 C 485.83 344.61 494.09 335.46 502.17 326.14 C 538.50 283.75 576.88 241.80 618.05 204.07 C 633.66 190.53 650.31 175.91 668.63 166.29 C 674.86 162.89 681.72 160.77 688.76 159.86 C 701.47 158.39 714.60 163.26 722.49 173.50 Z" fill="#010202" />
<path d="M 682.18 218.59 C 682.62 228.55 681.69 238.31 681.03 248.25 C 676.82 291.77 670.54 335.07 662.38 378.03 C 659.54 394.51 656.35 410.91 653.00 427.30 C 649.33 448.20 643.96 468.74 640.01 489.59 C 635.77 490.07 631.54 490.41 627.26 490.35 C 617.14 490.30 607.11 491.36 597.00 491.57 C 581.86 492.60 566.68 492.99 551.54 493.95 C 518.02 495.96 484.50 498.43 451.01 500.96 C 442.39 501.65 433.86 502.71 425.20 502.70 C 430.32 495.94 435.79 489.47 440.97 482.76 C 466.56 450.20 492.61 418.01 519.32 386.38 C 548.81 351.03 579.20 316.35 611.26 283.31 C 631.38 262.16 652.72 242.14 675.07 223.37 C 677.28 221.46 679.74 220.14 682.18 218.59 Z" fill="#1d8eda" />
<path d="M 0.00 522.64 C 0.23 542.00 2.02 561.03 4.39 580.22 C 6.55 598.01 10.41 615.79 14.37 633.26 C 18.48 648.48 22.38 663.83 27.58 678.72 C 34.02 696.50 40.53 714.13 48.98 731.08 C 59.36 753.57 71.91 774.86 85.42 795.59 C 99.12 816.10 114.39 835.76 130.85 854.12 C 167.39 895.18 210.83 930.13 258.68 957.15 C 268.38 963.01 278.66 968.14 288.88 973.07 C 309.53 983.40 331.25 991.75 353.15 999.04 C 401.94 1014.80 452.98 1023.11 504.23 1024.00 L 0.00 1024.00 L 0.00 522.64 Z" fill="transparent" />
<path d="M 1024.00 525.75 L 1024.00 1024.00 L 520.43 1024.00 C 528.60 1023.70 536.82 1023.64 544.95 1022.91 C 565.28 1021.49 586.04 1019.55 606.02 1015.44 C 618.51 1013.11 630.86 1010.51 643.08 1007.00 C 725.32 985.74 802.09 943.20 863.67 884.68 C 871.68 877.35 879.36 869.68 886.61 861.61 C 928.08 817.35 961.26 765.66 984.73 709.78 C 996.08 683.01 1004.48 655.26 1011.24 627.02 C 1018.79 593.75 1023.13 559.84 1024.00 525.75 Z" fill="transparent" />
<path d="M 686.66 540.20 C 685.61 541.27 684.55 542.34 683.50 543.40 C 682.82 543.43 682.14 543.46 681.46 543.49 C 681.64 542.53 681.82 541.57 682.02 540.61 C 683.56 540.42 685.11 540.32 686.66 540.20 Z" fill="#1d8eda" />
<path d="M 601.33 655.23 C 596.07 685.08 589.38 716.98 589.26 747.45 C 581.16 747.67 573.11 747.45 565.02 748.03 C 553.92 748.59 542.67 748.21 531.57 749.11 C 524.03 749.53 516.48 749.39 508.94 749.93 C 500.80 750.53 492.65 750.32 484.48 750.77 C 472.48 751.65 460.44 751.37 448.43 752.38 C 457.19 745.96 466.56 740.66 475.64 734.69 C 482.98 730.17 490.19 725.47 497.41 720.77 C 507.18 714.41 517.35 708.73 527.02 702.21 C 551.71 686.41 576.57 670.92 601.33 655.23 Z" fill="#1d8eda" />
</svg>